<svg xmlns="http://www.w3.org/2000/svg" viewBox="0 0 242.87 301.72"><defs><style>.cls-1{fill:#40c768;}.cls-2{fill:#f0a8da;}.cls-3{fill:#fffbf5;}.cls-4{fill:#d45047;}</style></defs><title>cherrie tree</title><g id="Layer_2" data-name="Layer 2"><g id="cherrie_tree" data-name="cherrie tree"><g id="Layer_26" data-name="Layer 26"><path class="cls-1" d="M145.37,279.76s12,21.7-37,22-26-22-26-22-7.45-5.87-5.38-10.21a5.75,5.75,0,0,0,6.14,3.95s.19-3.76-1.66-5.49a3,3,0,0,1,2.94,2.37s1.15-7.86,1.34-7.86,1.4,8.37,2.87,8.05,26.94-8,47.7,1.53c0,0-2.72-13.79,2.22-4.77,0,0,1.36,5.28,2.55-.17s4.08-10.89,3.57-5.61-1,12.76-1,12.76,6.47-1.87,6.47-5.28C150.05,269,150.73,278.06,145.37,279.76Z"/></g><g id="white_part" data-name="white part"><path class="cls-2" d="M149.54,17S154.48-6.88,174.9,2s4.94,20.77,4.94,20.77,21.61-18.39,17.87,7.49c0,0,20.43-5.45,22.47,10.55,0,0,2.72,10.72,0,14.47,0,0,15-9.36,20.93-1.36s-4.93,20.59-8.17,17.7c0,0,16.34,20.76-7.14,24.34,0,0,9.87,15.32-1,25,0,0,16.17,7.83,7.66,19.57,0,0,11.92,6,6.47,21.45s-21.1,3.92-20.93,0c0,0-2.73,9-10.39,8.68s-11.69-6.13-11.38-9.19c0,0-13.3,1.36-13.64-8.68,0,0-.34,8.17-7.66,9,0,0,8,5.79,4.09,12.6s-11.07,9.7-12.09,5.78c0,0,2.55,15.83-6.47,18.73s-16.68-6-16.68-6-15,25.53-28.25-.85c0,0-2,18.38-16.51,7,0,0-2.56,17.7-18.39,6.81,0,0,.85,20.42-21.78,10.72,0,0-18.73,19.23-22.47-4.77,0,0-15,13.11-24.68-.34S11,192.61,11,192.61s-19.58,0-6.47-13.28c0,0-8.51-16,1-22s17-3.41,17-3.41-3.4-24,20.09-16c0,0-3.75-4.94,3.23-4.42,0,0-27.23-6.13-14.64-27.24,0,0-30.3-15.15-2.21-35.91,0,0,6-4.09,9.87-4.26,0,0-8-15.15,5.45-19.4,0,0-3.58-26.9,19.06-16.34,0,0,14-40.51,33.36-1.88,0,0,10-27.23,28.26-7.83C125,20.69,132.69-15.22,149.54,17Z"/><path class="cls-3" d="M108.89,113.77q.19,3.28.15,6.58c-.11,6.58.18,22.35,5.69,15.41,6.9-8.68,36-56.43,41.62-49.53s-14.81,19.66-30.13,52.85-17.8,40.85-17.2,71a276.11,276.11,0,0,0,6.22,53.36s6.26,13-3.44,15.19-19.66,3.32-17.75-8.3,9.19-32.42,2.81-45.83-26.94-49.4-26.94-49.4-4.21-7.15-1.4-7.53,4.34-1,15.57,16.46,14.3,25.79,15.32,20.17,1.41-82.59-.38-100.85-2.43-34.08,2-30.76C105.26,75.68,107.66,94.2,108.89,113.77Z"/></g><g id="Layer_23" data-name="Layer 23"><path class="cls-4" d="M208.54,135.88a9.72,9.72,0,0,1-3,5.28,11.43,11.43,0,0,1-7.71,3.28,8.58,8.58,0,0,1-7.25-3.86,6.87,6.87,0,0,1,.57-8,5.91,5.91,0,0,1,6.49-1.41,8.81,8.81,0,0,1,2.62-1.74,6.34,6.34,0,0,1,6.5.78A6.2,6.2,0,0,1,208.54,135.88Z"/><path class="cls-4" d="M185.94,140.75a8.57,8.57,0,0,1-7.43,3.48,11.44,11.44,0,0,1-7.54-3.66,9.69,9.69,0,0,1-2.76-5.42,6.16,6.16,0,0,1,2.09-5.55,6.33,6.33,0,0,1,6.53-.46,8.77,8.77,0,0,1,2.53,1.86,5.93,5.93,0,0,1,6.42,1.75A6.88,6.88,0,0,1,185.94,140.75Z"/><path class="cls-1" d="M179.27,132.18h-.06a1.28,1.28,0,0,1-1-2.05,24,24,0,0,0,2.81-4.75,17.48,17.48,0,0,0,1.55-6.78v-1l-.71.78a12.37,12.37,0,0,1-1.45,1.36,11.34,11.34,0,0,1-3.27,1.84,10.65,10.65,0,0,1-3.67.66c-.32,0-.65,0-1,0a9.51,9.51,0,0,1-6.11-3.09,1.27,1.27,0,0,1,0-1.7,21,21,0,0,1,5.12-4.24A8.87,8.87,0,0,1,176,112a13.39,13.39,0,0,1,6.15,1.49,10.88,10.88,0,0,1,1.71,1.11,16.56,16.56,0,0,1,2.91-7.9,8.91,8.91,0,0,1,3.63-3,21,21,0,0,1,6.46-1.57H197a1.27,1.27,0,0,1,1.25,1,9.51,9.51,0,0,1-1.18,6.75,11.08,11.08,0,0,1-6.69,4.89,14,14,0,0,1-1.49.29l-1.27.17,1.14.58c.34.18.69.37,1,.57a18.45,18.45,0,0,1,4.78,4.06,20,20,0,0,1,3.7,6.75,21,21,0,0,1,.76,3.15,1.48,1.48,0,0,1-.32,1.18,1.45,1.45,0,0,1-1.18.51h-.05a1.25,1.25,0,0,1-1.18-1.07,19.09,19.09,0,0,0-.68-2.9,17.58,17.58,0,0,0-3.18-5.82,16.26,16.26,0,0,0-4.07-3.46,17.41,17.41,0,0,0-2.38-1.16l-.56-.21,0,.6a20,20,0,0,1-1.78,8.54,27.55,27.55,0,0,1-2.62,4.58l-.42.48A1.7,1.7,0,0,1,179.27,132.18Z"/></g><g id="Layer_24" data-name="Layer 24"><path class="cls-4" d="M170.12,51.3a9.77,9.77,0,0,1-3,5.29,11.43,11.43,0,0,1-7.71,3.27A8.55,8.55,0,0,1,152.13,56a6.87,6.87,0,0,1,.56-8,5.89,5.89,0,0,1,6.49-1.42,9.11,9.11,0,0,1,2.62-1.73,6.35,6.35,0,0,1,6.51.78A6.15,6.15,0,0,1,170.12,51.3Z"/><path class="cls-4" d="M147.52,56.17a8.53,8.53,0,0,1-7.43,3.48A11.38,11.38,0,0,1,132.56,56a9.7,9.7,0,0,1-2.77-5.43A6.2,6.2,0,0,1,131.88,45a6.34,6.34,0,0,1,6.54-.45A8.85,8.85,0,0,1,141,46.43a5.91,5.91,0,0,1,6.41,1.74A6.86,6.86,0,0,1,147.52,56.17Z"/><path class="cls-1" d="M140.85,47.6h-.06a1.28,1.28,0,0,1-1-2.05,24.17,24.17,0,0,0,2.82-4.75A17.42,17.42,0,0,0,144.19,34V33l-.71.78A11.71,11.71,0,0,1,142,35.12,11.55,11.55,0,0,1,138.77,37a10.6,10.6,0,0,1-3.66.66c-.33,0-.66,0-1,0A9.47,9.47,0,0,1,128,34.47a1.27,1.27,0,0,1,0-1.7,21.08,21.08,0,0,1,5.13-4.24,8.8,8.8,0,0,1,4.38-1.11,13.34,13.34,0,0,1,6.15,1.48A11.13,11.13,0,0,1,145.4,30a16.81,16.81,0,0,1,2.91-7.9,8.88,8.88,0,0,1,3.64-3,21,21,0,0,1,6.46-1.58h.12a1.28,1.28,0,0,1,1.25,1,9.5,9.5,0,0,1-1.17,6.75,11.13,11.13,0,0,1-6.69,4.89,10.74,10.74,0,0,1-1.5.29l-1.26.17,1.13.58c.35.18.69.37,1,.57a18.77,18.77,0,0,1,4.77,4.06,20.27,20.27,0,0,1,3.71,6.75,20.93,20.93,0,0,1,.75,3.15,1.43,1.43,0,0,1-1.49,1.69H159a1.23,1.23,0,0,1-1.17-1.07,17.86,17.86,0,0,0-.69-2.91A17.23,17.23,0,0,0,154,37.62a15.88,15.88,0,0,0-4.07-3.45A14.53,14.53,0,0,0,147.51,33l-.56-.22,0,.6a20,20,0,0,1-1.77,8.54,28.12,28.12,0,0,1-2.63,4.59l-.41.48A1.71,1.71,0,0,1,140.85,47.6Z"/></g><g id="Layer_25" data-name="Layer 25"><path class="cls-4" d="M77.87,111.2a9.75,9.75,0,0,1-3,5.28,11.39,11.39,0,0,1-7.7,3.27,8.55,8.55,0,0,1-7.25-3.85,6.86,6.86,0,0,1,.56-8,5.91,5.91,0,0,1,6.49-1.42,9,9,0,0,1,2.62-1.73,6.36,6.36,0,0,1,6.51.78A6.2,6.2,0,0,1,77.87,111.2Z"/><path class="cls-4" d="M55.27,116.06a8.57,8.57,0,0,1-7.43,3.49,11.49,11.49,0,0,1-7.54-3.66,9.75,9.75,0,0,1-2.76-5.43,6.18,6.18,0,0,1,2.09-5.55,6.34,6.34,0,0,1,6.54-.45,9,9,0,0,1,2.53,1.86,5.91,5.91,0,0,1,6.41,1.74A6.86,6.86,0,0,1,55.27,116.06Z"/><path class="cls-1" d="M48.6,107.49h-.06a1.28,1.28,0,0,1-1-2,23.88,23.88,0,0,0,2.82-4.75,17.59,17.59,0,0,0,1.54-6.77V92.86l-.71.78A12.46,12.46,0,0,1,49.79,95a11.31,11.31,0,0,1-3.27,1.83,10.64,10.64,0,0,1-3.66.66c-.33,0-.66,0-1,0a9.56,9.56,0,0,1-6.12-3.09,1.27,1.27,0,0,1,0-1.7,20.78,20.78,0,0,1,5.12-4.24,8.87,8.87,0,0,1,4.39-1.12,13.24,13.24,0,0,1,6.15,1.49,10.7,10.7,0,0,1,1.71,1.1A16.64,16.64,0,0,1,56.06,82a8.93,8.93,0,0,1,3.63-3,21,21,0,0,1,6.46-1.58h.13a1.28,1.28,0,0,1,1.25,1,9.55,9.55,0,0,1-1.17,6.75,11.06,11.06,0,0,1-6.69,4.89,10.74,10.74,0,0,1-1.5.29l-1.27.17L58,91.1c.34.17.69.36,1,.56a18.77,18.77,0,0,1,4.77,4.06,20,20,0,0,1,3.7,6.76,20.83,20.83,0,0,1,.76,3.14A1.47,1.47,0,0,1,68,106.8a1.45,1.45,0,0,1-1.18.51h-.06a1.25,1.25,0,0,1-1.18-1.07,18.08,18.08,0,0,0-.68-2.91,17.68,17.68,0,0,0-3.18-5.82,16,16,0,0,0-4.07-3.45,15.36,15.36,0,0,0-2.38-1.16l-.56-.22,0,.6a19.83,19.83,0,0,1-1.78,8.54,26.56,26.56,0,0,1-2.62,4.59l-.41.48A1.71,1.71,0,0,1,48.6,107.49Z"/></g></g></g></svg>