<svg xmlns="http://www.w3.org/2000/svg" viewBox="0 0 227.18 214.4"><defs><style>.cls-1{fill:#36b256;}.cls-2{fill:#fff;}.cls-3{fill:#189f40;}.cls-4{fill:#5b29ad;}.cls-5{opacity:0.15;}.cls-6{fill:#0d0d0d;}.cls-7{opacity:0.28;}.cls-8{fill:#010024;}</style></defs><title>grapes</title><g id="Layer_2" data-name="Layer 2"><g id="grape"><g id="Layer_108" data-name="Layer 108"><path class="cls-1" d="M88.48,181.69s34.51-25.64,68.25,0-43.19,39.14-62.27,29.69C94.46,211.38,61.87,201,88.48,181.69Z"/></g><g id="grape_wood_part" data-name="grape wood part"><path class="cls-2" d="M89,93.63s-.34-3.58,2.72-1.19,10.89,6.12,12.25,6.12h5.79s-5.46-5.44-10.39-7.66-8-7.83-4.76-6.46S114.16,93,115.52,96.35c1.1,2.76,8.26,13,10.92,16.81a.49.49,0,0,0,.9-.29c0-2.65.3-7.58,3.5-8.69,4.42-1.53,3.91-12.43,3.91-12.43L132.2,85s6.64,6.46,5.28,11.74,10.89-.34,11.74-1.87,1.53,4.59-7.83,7.32-3.91,14.12-3.91,14.12,1.53,1.2-.85,4.09S134.92,126,139,133.29s-1.53,20.76-1.53,20.76-1.88,2.56-1,7.49-2.56,7-4.77,10a8.11,8.11,0,0,0-1.7,5.79s.17,4.43-1.7,4.43c0,0-2.45,1.23-.66,4.36s2.93,6.45-1.41,6.45a36.65,36.65,0,0,0-13.66,3.19c-3.25,1.59-8.81-1.92-5.81-3.83s6.71-3.13,8.56-9.9,1-9.32,2.68-13.78,3.44-9.13,8.17-14.37a15.22,15.22,0,0,0,2.1-7.34c.13-4.34,1.09-12.32-.32-13.66s-2,.58-2.23-5.42c0,0-.32-2.36-2-2.75s.38-3.06-.83-4-4.72-1.85-6-5.55-4.59-12.32-8.55-13.15S93.58,101.18,89,93.63Z"/></g><g id="grape_bush" data-name="grape bush"><path class="cls-3" d="M88.75,38.14s-2.93-7.53,2.43-7.53c0,0-13.15-8.43,1.15-13.54,0,0-4.73-14.93,8.42-8.17,0,0,.51-11,9.58-8.55,0,0,4.85,3.19,4.59,7.91,0,0,4.6-11.87,12.9-6.63a6.22,6.22,0,0,1,2,6.38S137,1,141.14,9a7.66,7.66,0,0,1,0,6.64s9.44.64,3.06,10.34c0,0,2.6,2.55,2.21,4.47,0,0,5.75-8,10.73-6s3.23,8.42,3.23,8.42,8.64-3.32,10.94,2-.73,7-.73,7,8.17,1.75,7.11,8.77c0,0,5-2.56,7,0,0,0-4.64-10.21,3.62-11.7,0,0,3.4-1.24,4.93,7,0,0,6.9-11.66,13.54-6.46S205.56,51,205.56,51s11.66,2.51,5.15,11c0,0,10,3.66,4.6,10.64A6.55,6.55,0,0,1,210.16,75s16.85,2.55,10.21,13c0,0,6.26,10.34-3.06,11,0,0,.12,16.6-11.37,6.13,0,0,4.47,16.59-11.74,9.19,0,0-17.87,9.83-17.36-1.79,0,0-.26-4.47,5.49-6.76,0,0-13.79,5.61-10-4.34,0,0-7.4-2.56-2.55-8,0,0-7.66,7.92-11.24.77,0,0-3.57,11.36-14.55,3.19,0,0-6.77,10.09-12.51.77,0,0-13.53-4.85-5-13.15,0,0-3.7-3.7,1.66-6.38,0,0-4.6,2.42-4.85-.13,0,0,1.4,7.78-5,6.38,0,0-5.36,14.17-12,.26,0,0-.77,6.89-8.81,4.46,0,0,4.6,15.07-7.27,10.22,0,0,4.8,11.61-4.18,10.72s-6.93-1.91-6.93-1.91,13.28,12.63-1.66,13.53-11.36-9.45-11.36-9.45-2.94,9.45-6.9,4.09c0,0,.64,17.1-9.83,13.91s-9.06-9.06-9.06-9.06-16.47-1.79-6.26-11.49c0,0-14.29-2.68-6.12-13.92,0,0,1.91-3.57,5.23-3.57,0,0-8.93-2.56-5.62-8.68,0,0-8.42,1.27-5.36-6.39,0,0-15.06,8.56-13.78-7.14l2.8-3.83S-2.91,64.69.54,55.63s16.21-2.56,16.21-2.56S12,45.41,20.84,43.88s9.83,10.21,9.83,10.21.38-5.74,5.1-4.46c0,0-5.61-10.34,5.37-12.51,0,0,7-.64,9.06,2,0,0-1.66-13.15,8.3-13.41,0,0,6,.64,6.38,6.51,0,0,5.23-8.8,10-3.82s1.4,8,1.4,8S84.67,27.8,88.75,38.14Z"/></g><g id="grape_1" data-name="grape 1"><g id="grape_body" data-name="grape body"><path class="cls-2" d="M168.23,56.67,180.8,76.79a.81.81,0,0,1-.26,1.11.82.82,0,0,1-1.07-.19L165,59a2,2,0,1,1,3.16-2.46Z"/><circle class="cls-4" cx="172.97" cy="94.78" r="9.68" transform="translate(0.37 190.23) rotate(-57.66)"/><circle class="cls-4" cx="167.73" cy="107.16" r="9.68" transform="translate(-12.94 190.69) rotate(-57.39)"/><circle class="cls-4" cx="178.73" cy="106.83" r="9.68" transform="translate(-20.76 47.15) rotate(-14.21)"/><circle class="cls-4" cx="191.16" cy="99.8" r="9.68" transform="translate(-7.94 16.96) rotate(-4.98)"/><path class="cls-4" d="M218.31,102.24a9.68,9.68,0,1,1-11.51-7.41A9.68,9.68,0,0,1,218.31,102.24Z"/><circle class="cls-4" cx="216.77" cy="110.72" r="9.68" transform="translate(15.49 247.59) rotate(-61.27)"/><path class="cls-4" d="M216.17,138a9.68,9.68,0,1,1-11.52-7.41A9.69,9.69,0,0,1,216.17,138Z"/><circle class="cls-4" cx="210.11" cy="125.65" r="9.68" transform="translate(-9.12 234.61) rotate(-57.31)"/><path class="cls-4" d="M211.51,113.62A9.68,9.68,0,1,1,200,106.21,9.69,9.69,0,0,1,211.51,113.62Z"/><circle class="cls-4" cx="195.44" cy="109.42" r="9.68" transform="translate(-1.93 215.32) rotate(-57.46)"/><circle class="cls-4" cx="188.78" cy="116.79" r="9.68" transform="translate(-11.34 212.86) rotate(-57.39)"/><circle class="cls-4" cx="173.19" cy="117.94" r="9.68" transform="translate(-19.4 200.49) rotate(-57.46)"/><path class="cls-4" d="M211.14,128.51a9.68,9.68,0,1,1-11.52-7.41A9.68,9.68,0,0,1,211.14,128.51Z"/><circle class="cls-4" cx="180.05" cy="128.42" r="9.68" transform="translate(-25.06 211.12) rotate(-57.46)"/><circle class="cls-4" cx="191.79" cy="133.36" r="9.68" transform="translate(-23.8 223.3) rotate(-57.46)"/><circle class="cls-4" cx="185.72" cy="83.95" r="11.69" transform="translate(14.45 194.45) rotate(-57.15)"/><circle class="cls-4" cx="202.82" cy="88.31" r="11.69" transform="translate(-2.74 6.58) rotate(-1.85)"/><circle class="cls-4" cx="218.1" cy="95.6" r="8.71" transform="translate(-13.86 149.45) rotate(-36.74)"/><circle class="cls-4" cx="210.54" cy="150.07" r="8.65" transform="translate(41.43 345.65) rotate(-84.63)"/><g class="cls-5"><path class="cls-6" d="M219.16,150.45a8.64,8.64,0,0,1-17.09,1.42l0-.08a10.57,10.57,0,0,0,17.11-1.34Z"/></g><circle class="cls-4" cx="197.12" cy="146.11" r="9.62" transform="translate(-43.61 193.6) rotate(-47.71)"/><g class="cls-5"><path class="cls-6" d="M206.71,146.53a9.62,9.62,0,0,1-19,1.58l0-.08a11.75,11.75,0,0,0,19-1.5Z"/></g><circle class="cls-4" cx="177.72" cy="134.63" r="9.62" transform="translate(-31.11 212.72) rotate(-57.65)"/><g class="cls-5"><path class="cls-6" d="M187.31,135a9.62,9.62,0,0,1-19,1.59v-.09a11.75,11.75,0,0,0,19-1.5Z"/></g><circle class="cls-4" cx="217.23" cy="111.49" r="9.62" transform="translate(-24.98 80.59) rotate(-19.9)"/><g class="cls-5"><path class="cls-6" d="M226.82,111.91a9.62,9.62,0,0,1-19,1.58l0-.08a11.76,11.76,0,0,0,19-1.5Z"/></g><path class="cls-4" d="M213.94,102a9.63,9.63,0,1,1-11.45-7.37A9.62,9.62,0,0,1,213.94,102Z"/><circle class="cls-4" cx="199.49" cy="132.38" r="9.62" transform="translate(-3.71 5.77) rotate(-1.64)"/><g class="cls-5"><path class="cls-6" d="M209.08,132.8a9.63,9.63,0,0,1-19,1.58l0-.09a11.76,11.76,0,0,0,19.05-1.49Z"/></g><circle class="cls-4" cx="214.28" cy="131.36" r="9.62" transform="translate(19.3 289.95) rotate(-70.63)"/><g class="cls-5"><path class="cls-6" d="M223.87,131.77a9.62,9.62,0,0,1-19,1.58l0-.08a11.79,11.79,0,0,0,11.43,3.92A11.67,11.67,0,0,0,223.87,131.77Z"/></g><circle class="cls-4" cx="167.74" cy="107.16" r="9.62"/><g class="cls-5"><path class="cls-6" d="M177.33,107.57a9.62,9.62,0,0,1-19,1.58l0-.08a11.76,11.76,0,0,0,19.05-1.5Z"/></g><g class="cls-7"><path class="cls-2" d="M219.64,88.54c2.38.52,4.09,1.88,3.84,3s-2.39,1.69-4.76,1.17-4.09-1.89-3.84-3.05S217.27,88,219.64,88.54Z"/></g><g class="cls-7"><path class="cls-2" d="M180,124.09c2.37.52,4.09,1.88,3.84,3s-2.39,1.69-4.76,1.17-4.1-1.89-3.84-3S177.64,123.57,180,124.09Z"/></g><g class="cls-7"><path class="cls-2" d="M216.31,123.67c1.84.4,3.16,1.45,3,2.35s-1.85,1.31-3.68.91-3.16-1.46-3-2.36S214.48,123.27,216.31,123.67Z"/></g><g class="cls-7"><path class="cls-2" d="M212.67,144.56c1.83.4,3.16,1.46,3,2.36s-1.84,1.3-3.68.9-3.16-1.45-3-2.35S210.83,144.16,212.67,144.56Z"/></g><circle class="cls-4" cx="172.87" cy="94.59" r="9.62" transform="translate(-22.85 71.73) rotate(-22.02)"/><g class="cls-5"><path class="cls-6" d="M182.46,95a9.62,9.62,0,0,1-19,1.59V96.5a11.75,11.75,0,0,0,19-1.5Z"/></g><circle class="cls-4" cx="185.41" cy="83.03" r="11.49" transform="translate(96.22 265.55) rotate(-88.08)"/><g class="cls-5"><path class="cls-6" d="M196.85,83.53a11.48,11.48,0,0,1-22.7,1.88l0-.1a14,14,0,0,0,22.72-1.78Z"/></g><g class="cls-7"><path class="cls-2" d="M188.46,75.16c2.37.52,4.09,1.89,3.84,3s-2.39,1.69-4.76,1.17-4.1-1.88-3.84-3S186.09,74.64,188.46,75.16Z"/></g><g class="cls-7"><path class="cls-2" d="M162.54,105.33c-.28,1.26-1,2.18-1.63,2s-.9-1.27-.62-2.53,1-2.19,1.62-2S162.81,104.06,162.54,105.33Z"/></g><g class="cls-7"><path class="cls-2" d="M168,92.21c-.28,1.26-1,2.18-1.63,2s-.9-1.27-.62-2.54,1-2.18,1.62-2S168.27,90.94,168,92.21Z"/></g><circle class="cls-4" cx="217.56" cy="95.91" r="9.62" transform="translate(20.12 228.38) rotate(-57.65)"/><g class="cls-5"><path class="cls-6" d="M227.15,96.33a9.62,9.62,0,0,1-19,1.58v-.08a11.75,11.75,0,0,0,19-1.5Z"/></g></g><g id="grape_face" data-name="grape face"><g id="closed_mouth" data-name="closed mouth"><path class="cls-8" d="M193.32,109.13a5.83,5.83,0,0,1-4.41-.86.7.7,0,0,1-.2-1,.71.71,0,0,1,1-.2,4.45,4.45,0,0,0,6.17-1.25.71.71,0,1,1,1.18.79A5.78,5.78,0,0,1,193.32,109.13Z"/></g><g id="R_closed_eye" data-name="R closed eye"><path class="cls-2" d="M206,96.79A6.29,6.29,0,0,1,208.71,98a1.51,1.51,0,0,1-1.18,2.69,1.46,1.46,0,0,1-.66-.29,3.33,3.33,0,0,0-1.44-.63,3.29,3.29,0,0,0-3.2,1.25,1.53,1.53,0,0,1-1.46.57,1.71,1.71,0,0,1-.66-.29,1.52,1.52,0,0,1-.58-1,1.46,1.46,0,0,1,.3-1.12A6.34,6.34,0,0,1,206,96.79Z"/><path class="cls-8" d="M204.14,97.59a5.47,5.47,0,0,1,4.05,1.08.66.66,0,0,1,.12.93.67.67,0,0,1-.93.13,4.15,4.15,0,0,0-5.82.77.67.67,0,0,1-.93.12.66.66,0,0,1-.13-.93A5.49,5.49,0,0,1,204.14,97.59Z"/></g><g id="L_closed_eye" data-name="L closed eye"><path class="cls-2" d="M179.87,102a6.25,6.25,0,0,1,2.75,1.21,1.51,1.51,0,0,1-1.18,2.69,1.46,1.46,0,0,1-.66-.29,3.22,3.22,0,0,0-1.44-.63,3.29,3.29,0,0,0-3.19,1.24,1.52,1.52,0,0,1-1.47.57,1.61,1.61,0,0,1-.66-.28,1.52,1.52,0,0,1-.58-1,1.55,1.55,0,0,1,.3-1.12,6.29,6.29,0,0,1,4.2-2.42A6,6,0,0,1,179.87,102Z"/><path class="cls-8" d="M178.05,102.81a5.47,5.47,0,0,1,4,1.08.66.66,0,0,1,.13.93.67.67,0,0,1-.93.13,4.16,4.16,0,0,0-5.83.77.67.67,0,0,1-.93.12.66.66,0,0,1-.12-.93A5.45,5.45,0,0,1,178.05,102.81Z"/></g><g id="right_eye" data-name="right eye"><path class="cls-2" d="M204.41,104a5.31,5.31,0,1,1,5.3-5.31A5.31,5.31,0,0,1,204.41,104Z"/><path class="cls-8" d="M204.41,102a3.4,3.4,0,1,1,3.39-3.4A3.4,3.4,0,0,1,204.41,102Z"/><path class="cls-2" d="M203,101a.85.85,0,1,1,.85-.85A.85.85,0,0,1,203,101Z"/></g><g id="left_eye" data-name="left eye"><path class="cls-2" d="M178.58,111.06a5.31,5.31,0,1,1,5.3-5.3A5.31,5.31,0,0,1,178.58,111.06Z"/><path class="cls-8" d="M178.58,109.15a3.4,3.4,0,1,1,3.4-3.39A3.4,3.4,0,0,1,178.58,109.15Z"/><path class="cls-2" d="M177.12,108.11a.85.85,0,1,1,.85-.85A.85.85,0,0,1,177.12,108.11Z"/></g></g></g><g id="grape_2" data-name="grape 2"><g id="grape_body-2" data-name="grape body"><path class="cls-2" d="M92.88,43.44,78.35,62.19a.8.8,0,0,1-1.13.14A.81.81,0,0,1,77,61.27L89.6,41.15A2,2,0,1,1,93,43.27,1.63,1.63,0,0,1,92.88,43.44Z"/><circle class="cls-4" cx="84.85" cy="79.26" r="9.68" transform="translate(-29.24 57.68) rotate(-32.34)"/><circle class="cls-4" cx="90.1" cy="91.64" r="9.68" transform="matrix(0.84, -0.54, 0.54, 0.84, -35.18, 63.01)"/><circle class="cls-4" cx="79.1" cy="91.31" r="9.68" transform="translate(-28.84 145.57) rotate(-75.79)"/><circle class="cls-4" cx="66.67" cy="84.28" r="9.68" transform="translate(-23.07 143.38) rotate(-85.02)"/><path class="cls-4" d="M39.52,86.72A9.68,9.68,0,1,0,51,79.31,9.67,9.67,0,0,0,39.52,86.72Z"/><circle class="cls-4" cx="41.05" cy="95.2" r="9.68" transform="translate(-40.7 31.45) rotate(-28.73)"/><path class="cls-4" d="M41.66,122.5a9.68,9.68,0,1,0,11.51-7.41A9.68,9.68,0,0,0,41.66,122.5Z"/><circle class="cls-4" cx="47.72" cy="110.13" r="9.68" transform="translate(-51.92 43.22) rotate(-32.69)"/><path class="cls-4" d="M46.32,98.1a9.68,9.68,0,1,0,11.51-7.41A9.67,9.67,0,0,0,46.32,98.1Z"/><circle class="cls-4" cx="62.38" cy="93.9" r="9.68" transform="translate(-40.72 48.3) rotate(-32.54)"/><circle class="cls-4" cx="69.04" cy="101.27" r="9.68" transform="translate(-43.7 53.18) rotate(-32.61)"/><circle class="cls-4" cx="84.64" cy="102.42" r="9.68" transform="matrix(0.84, -0.54, 0.54, 0.84, -41.81, 61.61)"/><path class="cls-4" d="M46.69,113a9.68,9.68,0,1,0,11.51-7.41A9.67,9.67,0,0,0,46.69,113Z"/><circle class="cls-4" cx="77.77" cy="112.9" r="9.68" transform="translate(-48.52 59.56) rotate(-32.54)"/><circle class="cls-4" cx="66.04" cy="117.84" r="9.68" transform="translate(-53.02 54.03) rotate(-32.54)"/><circle class="cls-4" cx="72.1" cy="68.43" r="11.69" transform="translate(-25.59 50.05) rotate(-32.85)"/><circle class="cls-4" cx="55" cy="72.79" r="11.69" transform="translate(-19.52 125.42) rotate(-88.15)"/><circle class="cls-4" cx="39.73" cy="80.08" r="8.71" transform="translate(-48.21 64.02) rotate(-53.26)"/><circle class="cls-4" cx="47.28" cy="134.55" r="8.65" transform="translate(-12.38 5.02) rotate(-5.37)"/><g class="cls-5"><path class="cls-6" d="M38.67,134.93a8.64,8.64,0,0,0,17.09,1.42v-.08a10.56,10.56,0,0,1-17.1-1.34Z"/></g><circle class="cls-4" cx="60.71" cy="130.59" r="9.62" transform="translate(-72.08 74.84) rotate(-42.29)"/><g class="cls-5"><path class="cls-6" d="M51.11,131a9.62,9.62,0,0,0,19,1.58l0-.08a11.76,11.76,0,0,1-19-1.5Z"/></g><circle class="cls-4" cx="80.11" cy="119.11" r="9.62" transform="translate(-51.3 61.35) rotate(-32.35)"/><g class="cls-5"><path class="cls-6" d="M70.52,119.52a9.62,9.62,0,0,0,19,1.59l0-.09a11.75,11.75,0,0,1-19-1.5Z"/></g><circle class="cls-4" cx="40.6" cy="95.97" r="9.62" transform="translate(-63.46 101.48) rotate(-70.1)"/><g class="cls-5"><path class="cls-6" d="M31,96.39A9.62,9.62,0,0,0,50,98l0-.08a11.76,11.76,0,0,1-19-1.5Z"/></g><path class="cls-4" d="M43.89,86.48a9.62,9.62,0,1,0,11.45-7.37A9.61,9.61,0,0,0,43.89,86.48Z"/><circle class="cls-4" cx="58.34" cy="116.86" r="9.62" transform="translate(-60.14 171.82) rotate(-88.36)"/><g class="cls-5"><path class="cls-6" d="M48.75,117.28a9.62,9.62,0,0,0,19,1.58l0-.09a11.75,11.75,0,0,1-19-1.49Z"/></g><circle class="cls-4" cx="43.55" cy="115.84" r="9.62" transform="translate(-35.95 20.99) rotate(-19.37)"/><g class="cls-5"><path class="cls-6" d="M34,116.25a9.62,9.62,0,0,0,19,1.58v-.08a11.79,11.79,0,0,1-11.43,3.92A11.67,11.67,0,0,1,34,116.25Z"/></g><circle class="cls-4" cx="90.09" cy="91.64" r="9.62"/><g class="cls-5"><path class="cls-6" d="M80.5,92.05a9.62,9.62,0,0,0,19,1.58v-.08a11.75,11.75,0,0,1-19-1.5Z"/></g><g class="cls-7"><path class="cls-2" d="M38.19,73c-2.38.52-4.1,1.88-3.84,3s2.38,1.69,4.76,1.17,4.09-1.89,3.84-3S40.56,72.5,38.19,73Z"/></g><g class="cls-7"><path class="cls-2" d="M77.81,108.57c-2.37.52-4.09,1.88-3.84,3.05s2.39,1.69,4.76,1.17,4.09-1.89,3.84-3.05S80.18,108.05,77.81,108.57Z"/></g><g class="cls-7"><path class="cls-2" d="M41.51,108.15c-1.83.4-3.16,1.45-3,2.35s1.84,1.31,3.68.91,3.16-1.46,3-2.36S43.35,107.75,41.51,108.15Z"/></g><g class="cls-7"><path class="cls-2" d="M45.16,129c-1.84.4-3.16,1.46-3,2.36s1.85,1.3,3.68.9,3.16-1.45,3-2.35S47,128.64,45.16,129Z"/></g><circle class="cls-4" cx="84.96" cy="79.07" r="9.62" transform="translate(-20.2 128.17) rotate(-67.98)"/><g class="cls-5"><path class="cls-6" d="M75.37,79.48a9.62,9.62,0,0,0,19,1.59l0-.09a11.75,11.75,0,0,1-19-1.5Z"/></g><circle class="cls-4" cx="72.42" cy="67.51" r="11.49" transform="translate(-2.22 2.46) rotate(-1.92)"/><g class="cls-5"><path class="cls-6" d="M61,68a11.48,11.48,0,0,0,22.71,1.88l0-.1A14,14,0,0,1,61,68Z"/></g><g class="cls-7"><path class="cls-2" d="M69.37,59.64c-2.38.52-4.1,1.89-3.84,3s2.38,1.69,4.76,1.17,4.09-1.88,3.84-3S71.74,59.12,69.37,59.64Z"/></g><g class="cls-7"><path class="cls-2" d="M95.29,89.81c.28,1.26,1,2.18,1.63,2s.9-1.27.62-2.53-1-2.19-1.63-2S95,88.54,95.29,89.81Z"/></g><g class="cls-7"><path class="cls-2" d="M89.83,76.69c.28,1.26,1,2.18,1.63,2s.9-1.27.62-2.54-1-2.18-1.63-2S89.55,75.42,89.83,76.69Z"/></g><circle class="cls-4" cx="40.27" cy="80.39" r="9.62" transform="matrix(0.84, -0.54, 0.54, 0.84, -36.77, 34.03)"/><g class="cls-5"><path class="cls-6" d="M30.68,80.81a9.62,9.62,0,0,0,19,1.58l0-.08a11.75,11.75,0,0,1-19-1.5Z"/></g></g><g id="grape_face-2" data-name="grape face"><g id="closed_mouth-2" data-name="closed mouth"><path class="cls-8" d="M64.5,93.61a5.84,5.84,0,0,0,4.42-.86.71.71,0,1,0-.79-1.18A4.45,4.45,0,0,1,62,90.32a.72.72,0,0,0-1-.2.71.71,0,0,0-.2,1A5.83,5.83,0,0,0,64.5,93.61Z"/></g><g id="L_closed_eye-2" data-name="L closed eye"><path class="cls-2" d="M78,86.49A6.29,6.29,0,0,0,75.2,87.7a1.52,1.52,0,0,0,1.85,2.4,3.18,3.18,0,0,1,1.43-.63,3.31,3.31,0,0,1,3.2,1.24,1.51,1.51,0,0,0,1.46.57A1.56,1.56,0,0,0,83.8,91a1.48,1.48,0,0,0,.58-1,1.46,1.46,0,0,0-.3-1.12,6.25,6.25,0,0,0-4.19-2.42A6,6,0,0,0,78,86.49Z"/><path class="cls-8" d="M79.78,87.29a5.49,5.49,0,0,0-4.06,1.08.67.67,0,0,0,.81,1.06,4.16,4.16,0,0,1,5.83.77.66.66,0,1,0,1-.81A5.45,5.45,0,0,0,79.78,87.29Z"/></g><g id="R_closed_eye-2" data-name="R closed eye"><path class="cls-2" d="M51.87,81.27a6.25,6.25,0,0,0-2.75,1.21,1.51,1.51,0,0,0-.28,2.12,1.49,1.49,0,0,0,1.46.57,1.46,1.46,0,0,0,.66-.29,3.33,3.33,0,0,1,1.44-.63,3.28,3.28,0,0,1,3.19,1.25,1.56,1.56,0,0,0,1.47.57,1.71,1.71,0,0,0,.66-.29,1.52,1.52,0,0,0,.58-1,1.5,1.5,0,0,0-.3-1.12,6.36,6.36,0,0,0-6.13-2.38Z"/><path class="cls-8" d="M53.69,82.07a5.47,5.47,0,0,0-4,1.08.66.66,0,0,0,.8,1.06,4.16,4.16,0,0,1,5.83.77.67.67,0,0,0,.93.12.66.66,0,0,0,.12-.93A5.49,5.49,0,0,0,53.69,82.07Z"/></g><g id="eye_left" data-name="eye left"><path class="cls-2" d="M79.25,95.54a5.31,5.31,0,1,0-5.31-5.3A5.31,5.31,0,0,0,79.25,95.54Z"/><path class="cls-8" d="M79.25,93.63a3.4,3.4,0,1,0-3.4-3.39A3.39,3.39,0,0,0,79.25,93.63Z"/><path class="cls-2" d="M80.7,92.59a.85.85,0,1,0-.85-.85A.85.85,0,0,0,80.7,92.59Z"/></g><g id="eye_right" data-name="eye right"><path class="cls-2" d="M53.42,88.43a5.31,5.31,0,1,0-5.31-5.31A5.31,5.31,0,0,0,53.42,88.43Z"/><path class="cls-8" d="M53.42,86.52a3.4,3.4,0,1,0-3.4-3.4A3.4,3.4,0,0,0,53.42,86.52Z"/><path class="cls-2" d="M54.87,85.47a.85.85,0,1,0-.84-.85A.85.85,0,0,0,54.87,85.47Z"/></g></g></g></g></g></svg>