<svg xmlns="http://www.w3.org/2000/svg" viewBox="0 0 978.11 530.45"><defs><style>.cls-1{fill:#40c768;}.cls-2{fill:#7af29e;}</style></defs><title>path</title><g id="Layer_2" data-name="Layer 2"><g id="hill"><path class="cls-1" d="M0,143.87l33.43-31.66S37,92.3,26.79,87.7A9.64,9.64,0,0,1,37,92.3s-1.53-22.47,6.13-30.13c0,0,1,22.47,3.06,25s-.51-21.45,7.15-25c0,0-3.06,19.4,0,22.47,0,0,55.15-43.41,95.49-44.94s129.7-6.64,133.79-2.55c0,0,1.78.38,1.4-2.43s-4.47-8.68,4.47-3.44c0,0-2.94-11.24-4.47-13.15s1.15-1.66,3.19.64,7.66,9.44,7.66,9.44-.51-26.93-2-28.21a106.24,106.24,0,0,1,8.3,29.62s7.4-11.36,8.93-10.34c0,0-7.91,15.19-5.23,18.12h30.89s-2.93-4.21,1.41-4.21c0,0-3.58-5.23,0-5.36s4,2.17,4,2.17-2.3-12.51,4.72-10.34,4.21,9.7,2.68,10c0,0,7.66-4.22,5.87,1.91,0,0,8-3.57,4.6,5.43l35.81-.64s-3.45-3.06-2.11-4.92c0,0,.89,2.17,4.28,2.05,0,0,.12-2.75-1.09-3.9,0,0,4.66.19,5,1.6,0,0,1.21-4.85-1.34-6.38,0,0,4.85,1.27,5.23,3.57,0,0,.83-8.43-2-10.72,0,0,5.3,4.72,5.43,7.72,0,0,5.8-9.51,5-11,0,0,2.17,4.85-.64,13.4,0,0,6.89-5.93,8.61-4.15,0,0-6.76,3.77-5.23,8.88,0,0,41.68,8.8,78.45,30.25,0,0-2-7.57-6-9.06,0,0,6.94-.34,9.91,4.17,0,0-1.53-11-3-11,0,0,9,4.12,10.85,11.14,0,0,3.4-12.25,1.36-14.76,0,0,5.74.55,3.4,17,0,0,15.32-4.85,20.47,7.27,0,0-14.68-7.49-19.06,5.11,0,0,70.93,44.3,91,65.75,0,0,.34-8.69-2.56-12.43a18.1,18.1,0,0,1,9.71,8.68s2.89-6.64,0-8.85c0,0,4.59.68,8.34,11.91,0,0,5.78-12.59,3.4-17.19,0,0,6.3,17.88,2.72,26.73,0,0,11.41-5.28,13.45-2.39,0,0-13.27,3.24-10.38,14.47,0,0,342.47,284.21,350.13,371.26H0Z"/><g id="hill_particles" data-name="hill particles"><path class="cls-2" d="M46.74,128.8,32.86,144.48l-1.95,2.19c-.67.76,1.26,2.34,2,1.55l13.89-15.67,1.94-2.2c.68-.76-1.26-2.34-2-1.55Z"/><path class="cls-2" d="M24.88,178.22l-11.6,15.17-1.67,2.19c-.3.39,1.57,2,1.76,1.77L25,182.18,26.65,180c.3-.39-1.57-2-1.77-1.77Z"/><path class="cls-2" d="M46.69,201.11,32.8,215.9,30.86,218a.89.89,0,0,0,.35,1.37,1.5,1.5,0,0,0,1.71-.44l13.9-14.79L48.75,202a.88.88,0,0,0-.34-1.37,1.52,1.52,0,0,0-1.72.44Z"/><path class="cls-2" d="M75.16,138.05l-13,17.21-1.85,2.45c-.13.18,2,1.39,2.32.92l13-17.21L77.48,139c.13-.17-2-1.39-2.32-.92Z"/><path class="cls-2" d="M60.26,172.4,48.2,188l-1.72,2.24c-.07.09,1.14.25,1.23.26.29,0,1,.13,1.26-.14L61,174.77l1.72-2.24c.07-.09-1.15-.26-1.24-.26-.29,0-1.05-.13-1.26.13Z"/><path class="cls-2" d="M67.7,240.93,55.17,258l-1.76,2.38c-.28.38.79.42.93.41a2,2,0,0,0,1.49-.48l12.53-17,1.76-2.39c.28-.38-.79-.41-.93-.41a2,2,0,0,0-1.49.48Z"/><path class="cls-2" d="M31,244.18,14,267l-2.41,3.24c-.65.88,1.1,2.63,1.86,1.6l17-22.8,2.41-3.24c.66-.88-1.09-2.63-1.86-1.6Z"/><path class="cls-2" d="M103.1,165.92l-8,10.73-1.14,1.53c-.62.81.88,2.8,1.59,1.86l8-10.73,1.15-1.53c.61-.82-.89-2.8-1.59-1.86Z"/><path class="cls-2" d="M122.73,129l-8,11.62-1.15,1.66c-.62.9,1.65,1.87,2.16,1.14l8-11.61,1.15-1.67c.62-.89-1.65-1.87-2.16-1.14Z"/><path class="cls-2" d="M126.4,90l-11.15,14.72-1.61,2.13c-.8,1.06,1.25,2.42,2,1.49l11.15-14.72,1.61-2.13c.8-1.06-1.25-2.42-2-1.49Z"/><path class="cls-2" d="M172.64,59.64,159.23,71.71l-1.91,1.72c-.6.54.63,2.69,1.4,2l13.41-12.07L174,61.64c.6-.55-.63-2.69-1.4-2Z"/><path class="cls-2" d="M192.13,135.7l-10.26,19.19-1.48,2.77c-.69,1.27,1.61,2.21,2.25,1L192.9,139.5l1.48-2.77c.68-1.28-1.62-2.22-2.25-1Z"/><path class="cls-2" d="M213.24,77.66,203,96.21l-1.46,2.64c-.79,1.43,1.28,1.8,1.9.68L213.67,81l1.47-2.64c.79-1.43-1.28-1.8-1.9-.68Z"/><path class="cls-2" d="M232.92,178.78l-4.47,19.66-.64,2.8c-.31,1.36,2.1,1.89,2.38.67l4.47-19.67.64-2.8c.3-1.36-2.1-1.89-2.38-.66Z"/><path class="cls-2" d="M201.29,201.35,195.49,221l-.84,2.85c-.41,1.4,2,1.61,2.32.46l5.79-19.61.85-2.86c.41-1.4-2-1.61-2.32-.45Z"/><path class="cls-2" d="M52.77,300.91,45.16,315.7l-1.07,2.06c-.45.89,1.62,2.26,2,1.45l7.61-14.78,1.07-2.07c.45-.88-1.62-2.26-2-1.45Z"/><path class="cls-2" d="M161.44,227l-8,20.08-1.16,2.9a7,7,0,0,0,1.25-.23c.29-.1,1-.26,1.12-.58l8-20.08,1.16-2.9a6.9,6.9,0,0,0-1.24.23c-.3.1-1,.26-1.12.58Z"/><path class="cls-2" d="M84.49,204.25l-8,17-1.14,2.4c-.69,1.47,1.43,2,2,.78l8-17,1.14-2.4c.69-1.46-1.43-2.05-2-.78Z"/><path class="cls-2" d="M213,260.35l-7.14,17.84-1,2.58c-.29.71,2.14.62,2.42-.1l7.14-17.84,1-2.58c.29-.71-2.13-.62-2.42.1Z"/><path class="cls-2" d="M268.67,188.09v16.85c0,1.18,2.37.44,2.37-.61V187.48c0-1.18-2.37-.44-2.37.61Z"/><path class="cls-2" d="M257.37,260.29l-2.69,17.89-.38,2.54c0,.31,2.43.52,2.5,0l2.69-17.88.38-2.54c0-.32-2.43-.53-2.5,0Z"/><path class="cls-2" d="M237,231.43,233.4,248l-.51,2.36c-.25,1.15,2.19,1.69,2.44.53l3.57-16.53.51-2.36c.25-1.15-2.19-1.69-2.44-.54Z"/><path class="cls-2" d="M180.29,227.89l-2.54,9.85-.35,1.39c-.06.2,1.18,0,1.28,0,.28-.07,1.07-.18,1.16-.53l2.53-9.85.36-1.39c.05-.2-1.19,0-1.28,0-.28.06-1.07.18-1.16.53Z"/><path class="cls-2" d="M133.4,259.54l-7.14,17.85-1,2.58c-.37.92,1.51,2.55,1.92,1.51l7.14-17.85,1-2.58c.37-.91-1.5-2.55-1.92-1.51Z"/><path class="cls-2" d="M108.43,240.27l-13,22.39-1.82,3.14c-.47.82,1.69,2.08,2.16,1.25l13-22.39,1.82-3.14c.48-.82-1.68-2.08-2.16-1.25Z"/><path class="cls-2" d="M237.26,327.94l-8,20.79-1.14,2.95c-.32.84,1.5,2.51,1.86,1.57l8-20.79,1.14-2.95c.33-.84-1.5-2.51-1.86-1.57Z"/><path class="cls-2" d="M283.15,318.09l-3.35,19.07-.48,2.76c-.1.56,1.92,1.79,2,1.35l3.35-19.07.48-2.76c.1-.55-1.93-1.78-2-1.35Z"/><path class="cls-2" d="M289.09,260.19v20.43c0,1.23,2.37,1.69,2.37.21V260.4c0-1.23-2.37-1.69-2.37-.21Z"/><path class="cls-2" d="M160.22,309.44l-5.73,18.76-.83,2.73c-.16.54,2.08,1.51,2.16,1.25l5.73-18.76.83-2.73c.17-.54-2.08-1.52-2.16-1.25Z"/><path class="cls-2" d="M289.14,120.89V142.6c0,1.09,2.27,1.91,2.27.51V121.4c0-1.09-2.27-1.91-2.27-.51Z"/><path class="cls-2" d="M298.23,60.44V77.8c0,.66,2.47.89,2.47.4V60.84c0-.66-2.47-.89-2.47-.4Z"/><path class="cls-2" d="M254.41,64.09l-7.15,23.69-1,3.37c0,.15,2.11-.2,2.29-.77l7.15-23.7,1-3.37c0-.14-2.12.21-2.29.78Z"/><path class="cls-2" d="M340.75,282.53l3.43,18,.49,2.59c.22,1.15,2.55.34,2.37-.6l-3.43-18-.49-2.59c-.22-1.15-2.55-.34-2.37.6Z"/><path class="cls-2" d="M316.07,280.56v25c0,1.3,2,2,2,.33v-25c0-1.3-2-2-2-.33Z"/><path class="cls-2" d="M304,231.34l.59,15,.09,2.16c0,.72,2.45,1,2.43.58l-.59-15-.09-2.15c0-.73-2.45-1-2.43-.59Z"/><path class="cls-2" d="M349.27,81.4l4,8.26.58,1.19c.21.43.66,1.11,1.23,1s.43-.86.27-1.2l-4-8.26-.58-1.18c-.21-.43-.67-1.12-1.24-1s-.43.86-.26,1.2Z"/><path class="cls-2" d="M389,53.68l10.72,12.74,1.53,1.81a1.12,1.12,0,1,0,1.73-1.4L392.25,54.09l-1.53-1.81a1.12,1.12,0,1,0-1.73,1.4Z"/><path class="cls-2" d="M407.21,89.59l12,13.63,1.69,1.92c.57.65,2.64-.69,2.19-1.2l-12-13.62-1.69-1.93c-.56-.64-2.64.69-2.19,1.2Z"/><path class="cls-2" d="M326,413.32v24.51c0,.89,2.11,2.09,2.11.85V414.17c0-.89-2.11-2.09-2.11-.85Z"/><path class="cls-2" d="M315.84,356.17v18.38c0,1.22,2.49,1.45,2.49.26V356.43c0-1.22-2.49-1.46-2.49-.26Z"/><path class="cls-2" d="M338.44,319.36l3,22.54.44,3.28c.17,1.3,2.57.69,2.42-.45l-3-22.54-.43-3.28c-.18-1.31-2.57-.7-2.42.45Z"/><path class="cls-2" d="M345,375l3.35,20.08.48,2.9c.17,1,2.48.15,2.34-.68l-3.35-20.08-.48-2.9c-.17-1-2.48-.15-2.34.68Z"/><path class="cls-2" d="M368.69,430.59l4,25.49.57,3.62c.08.47,2.54.27,2.5,0l-4-25.49-.57-3.62c-.08-.47-2.54-.27-2.5,0Z"/><path class="cls-2" d="M345,455.59V477c0,.64,2.44.94,2.44.56V456.15c0-.64-2.44-.94-2.44-.56Z"/><path class="cls-2" d="M322.08,467v28.34c0,1,2.27,0,2.27-.88V466.16c0-1-2.27,0-2.27.88Z"/><path class="cls-2" d="M373.37,495.36l3.34,18.74.49,2.71c.26,1.45,2.57.52,2.33-.85l-3.35-18.74-.48-2.71c-.26-1.45-2.58-.52-2.33.85Z"/><path class="cls-2" d="M408.53,481l8.7,21.75,1.26,3.15c.38.94,2.8.42,2.47-.42l-8.7-21.75L411,480.56c-.38-.94-2.8-.42-2.47.41Z"/><path class="cls-2" d="M434,421.23l6.71,24.82.95,3.52a1.67,1.67,0,0,0,1.28,1.23.71.71,0,0,0,.84-.88l-6.71-24.82-.95-3.52a1.66,1.66,0,0,0-1.27-1.23c-.53-.06-1,.31-.85.88Z"/><path class="cls-2" d="M413.53,362.59l7.72,18.13,1.09,2.55c.39.91,2.87.71,2.42-.33L417,364.82,416,362.26c-.39-.91-2.87-.71-2.43.33Z"/><path class="cls-2" d="M397.38,386.62l3.5,20,.51,2.88c.06.35,2.47-.23,2.38-.77l-3.5-19.95-.51-2.88c-.06-.35-2.47.23-2.38.76Z"/><path class="cls-2" d="M473.7,473.26,487,495l1.9,3.13c.66,1.07,3,.48,2.26-.79l-13.27-21.76L476,472.48c-.65-1.08-3-.48-2.25.78Z"/><path class="cls-2" d="M519,493.74l18.74,23.59,2.7,3.41c.68.85,3-.1,2.22-1l-18.74-23.6-2.71-3.4c-.67-.85-3,.09-2.21,1.05Z"/><path class="cls-2" d="M527,420,537,439.51l1.41,2.72c.35.68,2.6-.4,2.26-1.06l-10.08-19.48L529.22,419c-.35-.68-2.6.41-2.26,1.06Z"/><path class="cls-2" d="M381,124.9l6.71,19.46.95,2.76a1.57,1.57,0,0,0,1.38,1.06c.47,0,1.17-.32,1-.91l-6.71-19.46-.95-2.75A1.56,1.56,0,0,0,382,124c-.47,0-1.16.32-1,.91Z"/><path class="cls-2" d="M377.16,185l6.7,20.77,1,3c.41,1.27,2.85.77,2.4-.6l-6.7-20.77-1-3c-.41-1.27-2.84-.77-2.4.6Z"/><path class="cls-2" d="M408.77,189.87,417,209.54l1.17,2.8a2.58,2.58,0,0,0,1.31,1.1c.23.11.88.33.67-.16l-8.21-19.67-1.17-2.8a2.64,2.64,0,0,0-1.32-1.1c-.23-.11-.87-.33-.67.16Z"/><path class="cls-2" d="M397.87,239.2l6.72,13,.94,1.82c.43.82,2.85.28,2.34-.7l-6.72-13-.94-1.82c-.42-.82-2.84-.28-2.34.7Z"/><path class="cls-2" d="M507.39,315.18l10.06,16.1,1.43,2.28c.34.55,2.72.08,2.37-.49L511.19,317l-1.43-2.28c-.34-.55-2.73-.07-2.37.49Z"/><path class="cls-2" d="M552,347.17l14.1,16.1,2,2.28a2.11,2.11,0,0,0,1.63.69c.49-.05.69-.41.34-.81L556,349.32l-2-2.27a2.09,2.09,0,0,0-1.63-.69c-.49.05-.7.41-.35.81Z"/><path class="cls-2" d="M642,205.13l12.77,10.08,1.78,1.41c.39.31,1.15.65,1.61.28s0-1-.29-1.26l-12.77-10.08-1.78-1.41c-.39-.31-1.15-.65-1.61-.28s0,1,.29,1.26Z"/><path class="cls-2" d="M558.71,137.13l13.69,11.75,2,1.7a3.12,3.12,0,0,0,1.52.3c.11,0,1.05,0,.89-.14L563.09,139l-2-1.7a3.12,3.12,0,0,0-1.52-.3c-.11,0-1.05,0-.89.14Z"/><path class="cls-2" d="M433.84,142.81,452.61,160l2.67,2.44c.31.28,1.14.24,1.53.25.11,0,1,0,.88-.15l-18.77-17.22-2.67-2.44c-.31-.28-1.14-.24-1.52-.25-.12,0-1.05,0-.89.16Z"/><path class="cls-2" d="M495.27,173.66l16.45,15.22L514,191c.3.27,1,.6,1.21.12s-.32-1.19-.64-1.48l-16.45-15.22-2.31-2.14c-.3-.27-.95-.6-1.21-.12s.33,1.19.64,1.48Z"/><path class="cls-2" d="M483.88,146l17.6,13.18L504,161a2.29,2.29,0,0,0,1.72.41c.45-.11.59-.41.17-.73l-17.6-13.18-2.5-1.88a2.27,2.27,0,0,0-1.72-.41c-.46.11-.6.41-.18.73Z"/><path class="cls-2" d="M537.32,233l12.54,13.07,1.79,1.86c.34.36,1,.59,1.35.11s-.06-1.23-.4-1.59L540.06,233.4l-1.79-1.86c-.35-.36-1-.59-1.36-.11s.06,1.23.41,1.59Z"/><path class="cls-2" d="M559.84,311.06l15.78,15.45,2.22,2.17a2.51,2.51,0,0,0,1.5.37c.1,0,1.15,0,.91-.28l-15.79-15.45-2.21-2.17a2.52,2.52,0,0,0-1.51-.37c-.09,0-1.15,0-.9.28Z"/><path class="cls-2" d="M597,372.78l13.42,11.74,1.9,1.66a2.51,2.51,0,0,0,1.53.3c.09,0,1.14-.1.89-.32L601.3,374.41l-1.9-1.66a2.49,2.49,0,0,0-1.52-.29c-.1,0-1.15.1-.9.32Z"/><path class="cls-2" d="M633.9,409.74l17.46,18.8,2.46,2.65c.26.27.75.73,1.08.33s-.28-1.27-.5-1.51l-17.46-18.8-2.46-2.65c-.26-.28-.75-.74-1.08-.33s.28,1.26.5,1.51Z"/><path class="cls-2" d="M706.39,486.19l12.08,13.41,1.71,1.91c.28.31.88.89,1.34.54s.06-1.13-.21-1.43L709.24,487.2l-1.72-1.9c-.28-.31-.88-.89-1.33-.54s-.07,1.13.2,1.43Z"/><path class="cls-2" d="M665.7,506.53l11.4,11.83,1.62,1.67c.32.33.9,1,1.4,1s.13-.42-.07-.63l-11.41-11.82L667,506.89c-.32-.33-.9-1-1.4-1s-.13.42.07.62Z"/><path class="cls-2" d="M671.79,239.08l15.76,13,2.24,1.84a2.15,2.15,0,0,0,1.7.24c.32-.07.91-.34.47-.7l-15.76-13L674,238.62a2.15,2.15,0,0,0-1.7-.24c-.33.07-.91.34-.47.7Z"/><path class="cls-2" d="M573.45,273.64l16.14,17.26,2.25,2.4a2.06,2.06,0,0,0,1.62.7c.47-.05.74-.43.36-.83l-16.13-17.26-2.25-2.4a2.06,2.06,0,0,0-1.62-.7c-.47.05-.74.43-.37.83Z"/><path class="cls-2" d="M644.14,283.83l11.4,13.52,1.63,1.93c.11.13.65.77.8.47s-.66-1.16-.8-1.32l-11.39-13.52L644.15,283c-.11-.14-.65-.78-.8-.48s.66,1.17.79,1.33Z"/><path class="cls-2" d="M604.9,254.28l10.72,11.17,1.53,1.6a1.37,1.37,0,0,0,1.73.31,1,1,0,0,0,.18-1.56l-10.72-11.17L606.8,253a1.37,1.37,0,0,0-1.72-.32,1,1,0,0,0-.18,1.56Z"/><path class="cls-2" d="M611.58,324.07l14.1,14.44,2,2c.2.2.9,1,1.23.94s-.35-.75-.42-.82l-14.11-14.45-2-2c-.2-.21-.89-1-1.23-.94s.35.74.43.82Z"/><path class="cls-2" d="M643,375.07l14.75,14.75,2.1,2.1c.48.48,2.72-.35,2.3-.78l-14.76-14.75-2.1-2.1c-.47-.48-2.72.35-2.29.78Z"/><path class="cls-2" d="M729.37,456.42l16.77,18.78,2.38,2.67c.3.34,1,.74,1.44.35s0-1.12-.31-1.45L732.88,458l-2.38-2.67c-.3-.33-1-.74-1.43-.34s0,1.11.3,1.44Z"/><path class="cls-2" d="M660,330.39l18.3,15.27,2.57,2.15c.4.34,2.18-1.31,2.06-1.41l-18.29-15.28L662,329c-.4-.34-2.18,1.31-2.06,1.41Z"/><path class="cls-2" d="M672.14,356.26l15.78,16.13,2.22,2.26c.31.31,1,.91,1.5.82s.23-.49,0-.75l-15.79-16.13-2.21-2.26c-.31-.31-1-.91-1.51-.82s-.23.48,0,.75Z"/><path class="cls-2" d="M694.52,274l16.08,15.35,2.3,2.2c.7.67,3,.22,1.9-.8l-16.08-15.36-2.3-2.2c-.7-.66-3-.22-1.9.81Z"/><path class="cls-2" d="M706,241.57,718,252.51l1.73,1.57a1.66,1.66,0,0,0,1.73.38.74.74,0,0,0,.26-1.23l-12-10.93L708,240.72a1.66,1.66,0,0,0-1.72-.37.73.73,0,0,0-.27,1.22Z"/><path class="cls-2" d="M666.39,260.47l5.7,5.59.81.79c.09.09.8.75.85.4,0-.16-.19-.43-.27-.53a5.49,5.49,0,0,0-.64-.72l-5.7-5.59-.81-.79c-.08-.09-.79-.75-.85-.4,0,.16.2.43.27.53a6.22,6.22,0,0,0,.64.72Z"/><path class="cls-2" d="M459.2,495.45l10,18.74,1.45,2.7c.53,1,2.84.12,2.23-1l-10-18.74-1.45-2.71c-.53-1-2.85-.11-2.24,1Z"/><path class="cls-2" d="M399.42,436l5.37,21.15.75,3c.37,1.44,2.67.48,2.32-.88l-5.37-21.15-.76-3c-.36-1.43-2.66-.47-2.31.89Z"/><path class="cls-2" d="M540.43,468.93l10,15.22,1.45,2.2c.75,1.14,3,0,2.16-1.21l-10-15.23-1.45-2.2c-.75-1.14-3,0-2.16,1.22Z"/></g></g></g></svg>