<svg xmlns="http://www.w3.org/2000/svg" viewBox="0 0 295.42 365.22"><defs><style>.cls-1{fill:#fff;}.cls-2,.cls-6{fill:#9f8af4;}.cls-2,.cls-7{stroke:#686275;stroke-miterlimit:10;}.cls-2{stroke-width:2px;}.cls-3{fill:#686275;}.cls-4{fill:#fcf2f2;}.cls-5{fill:#f5d5d5;}.cls-7{fill:none;stroke-width:2.5px;}.cls-8{fill:#ed7d90;}.cls-9{fill:#d8e8f0;}.cls-10{fill:#f095d5;}.cls-11{fill:#66f;}</style></defs><title>home 1_1</title><g id="Layer_2" data-name="Layer 2"><g id="house_1" data-name="house 1"><g id="smoke"><path class="cls-1" d="M81.75,21.94a10.36,10.36,0,0,0-6.13,5.87c-1.05,2.66-.67,5.75-.16,8.48.61,3.22,1.66,6.34,2.42,9.52a17.38,17.38,0,0,1-.35,10.53c-1.55,4.33-4.65,7.73-7.29,11.39a16.67,16.67,0,0,0-3.13,10.33c.11,4.79,1.53,9.44,4.94,12.9a12,12,0,0,0,10.7,3.49.87.87,0,0,0,.59.22l1,0a1,1,0,0,0,1-.94c.37-3.15-2.19-4.36-4.62-5.5-4.31-2-4-7.51-2.88-11.36,2.13-7.61,8.27-13,14.36-17.54,5.06-3.76,10.21-7.59,12.56-13.68a19.15,19.15,0,0,0-3.89-19.37A17.41,17.41,0,0,0,81.75,21.94Z"/><path class="cls-1" d="M63.58,43.08c3,0,5.46,2.9,5.4,6.37s-2.55,6.24-5.59,6.2-5.46-2.9-5.4-6.37S60.55,43,63.58,43.08Z"/><path class="cls-1" d="M100.63,68c4.67.07,8.38,4.7,8.29,10.34S105,88.5,100.32,88.43,91.94,83.73,92,78.09,96,67.93,100.63,68Z"/><ellipse class="cls-1" cx="67.11" cy="8.79" rx="8.79" ry="8.73" transform="translate(57.28 75.75) rotate(-89.11)"/></g><g id="chimney"><path class="cls-2" d="M104,154.32l-22,2.43-6.67-37.17-1.55-8.78,24.12-2.66c.11,1.19.58,5.14,1,8.58C100.44,129.14,103.17,148.4,104,154.32Z"/><path class="cls-3" d="M98.81,116.27l-23.59,2.82-1.49-8.29,24.12-2.66C98,109.33,98.38,112.82,98.81,116.27Z"/><rect class="cls-2" x="67.9" y="102.35" width="34.63" height="8.36" transform="translate(-11.18 10) rotate(-6.31)"/></g><g id="house_body" data-name="house body"><g id="Layer_84" data-name="Layer 84"><path class="cls-4" d="M137.46,361.75l143.11-.61s-3.74-56.54,0-78.06A63.8,63.8,0,0,0,276,245.61L196.42,108.88,134.09,243.34s-4.42,118.44,3.37,118.41"/></g><g id="Layer_83" data-name="Layer 83"><path class="cls-5" d="M8.33,248.41S3.64,361.48,4,365.22c0,0,134.64-1.53,136.51-4.08,0,0-5-94.23,0-115.53,0,0,33.4-45.33,57.85-127.92,0,0,38.15,88.45,82.23,145.1l-1.36-15.66L203.4,95.79Z"/></g><g id="hause_roof" data-name="hause roof"><path class="cls-6" d="M196.23,106.26a2.55,2.55,0,0,1,4.69-.18c13.53,28.34,76.65,159.21,87,157.69,11.58-1.7,5.11-9.19-3.06-18.72s-31.32-45.62-42.21-75.57-34.39-83.41-41.88-81-27.57,9.2-67.06,3.75c0,0-6.13-3.06-11.57,7.49s-11.24,21.45-62.3,79.66-61.62,64-57.87,71.49,10.89,8.85,19.06,2c0,0,12.25,13.62,22.81-3.06,0,0,6.81,16,19.06,0,0,0,8.51,16,24.51-.68,0,0,5.11,7.48,13.62.34,0,0,12.25,7.83,18.38-2,0,0,11.92,14,19.41,1.71C145.37,238.37,186.38,131.93,196.23,106.26Z"/><g id="Layer_75" data-name="Layer 75"><path class="cls-3" d="M194.22,90.4s3.46,4.75-.71,11.55c0,0,2.89,3.82,0,11.36s-15.61,40.35-15.61,40.35L156.72,207.3,142.4,241.71s-5.39,13-10.42,12.41-12.6-6.69-12.6-6.69-7.79,10.26-18.38,2c0,0-6.61,6-13.26.11,0,0-9.84,10.91-18.46,6.21,0,0-6.51-3.3-6.48-7.64,0,0-6,10.48-10.4,8.81s-8.59-7.15-8.59-7.15S38.33,258,31.3,258.1,21,252.24,21,252.24s-7.59,6.51-11.38,4.94-11.2-6.84-7.41-12.39,25.11-29.22,25.11-29.22l42.66-47.84,33-38.15L120,103.65l6.44-9.78s1.34-2.85,8.25-1.09,38.43,1.07,38.43,1.07Z"/></g><path class="cls-7" d="M196.23,106.26a2.55,2.55,0,0,1,4.69-.18c13.53,28.34,76.65,159.21,87,157.69,11.58-1.7,5.11-9.19-3.06-18.72s-31.32-45.62-42.21-75.57-34.39-83.41-41.88-81-27.57,9.2-67.06,3.75c0,0-6.13-3.06-11.57,7.49s-11.24,21.45-62.3,79.66-61.62,64-57.87,71.49,10.89,8.85,19.06,2c0,0,12.25,13.62,22.81-3.06,0,0,6.81,16,19.06,0,0,0,8.51,16,24.51-.68,0,0,5.11,7.48,13.62.34,0,0,12.25,7.83,18.38-2,0,0,11.92,14,19.41,1.71C145.37,238.37,186.38,131.93,196.23,106.26Z"/></g><g id="windows_and_door" data-name="windows and door"><path class="cls-3" d="M184.3,250.13c-1.43.18-2.86.27-4.29.31-2.61.06-8.68.59-8.54,4,.17,4.38.34,29.57-1.7,34.68s-1.88,10.55,9.87,10.38,25.87,2.55,24.85-9.7-1.09-32.4,0-37.56-4.14-6.19-10.77-4.15A57.2,57.2,0,0,1,184.3,250.13Z"/><path class="cls-3" d="M207.38,200.93s2.9,9.74,2.56,12.46,2,8.79,12.42,4.82c8.49-3.24,4.92-17.68,3.33-22.84a4.25,4.25,0,0,0-3.06-2.9c-2.22-.57-6-.67-11.16,2C211.47,194.47,206.28,196.91,207.38,200.93Z"/><path class="cls-3" d="M69.72,279.43s19.41-2.68,20.81,1.15c1.14,3.11,1.78,18.86,2,24.66,0,1,.07,1.95.15,2.93.2,2.23.22,8.65-5.5,10.33-7,2-23.1.25-28.54,1.91-5,1.54-13.84.26-13.43-6.13s-4.73-27.19,0-30.51C49.58,280.69,49.56,281.57,69.72,279.43Z"/><path class="cls-8" d="M225.92,304.87a9.6,9.6,0,0,1,3.18-6.2,8.73,8.73,0,0,1,5.94-2.13c7.66.08,13.66-.77,16.6,6.89s4.47,15.07,4,41c0,0,0,10.73-.51,13.53s-1.91,3.2-6.38,3.2H222.79a1,1,0,0,1-1-1C222.25,353.42,224.68,315.5,225.92,304.87Z"/><g id="Layer_81" data-name="Layer 81"><path class="cls-3" d="M248.91,329.22s4.94-.17,3.58,3.49-3.41,5.53-6,2.13S245.25,328.54,248.91,329.22Z"/></g><g id="Layer_80" data-name="Layer 80"><path class="cls-9" d="M184.75,254.43a4.75,4.75,0,0,1,1.63-.58c1.26-.18,3.09-.17,3.21,1.33.17,2-.14,10.25.14,13.05a.82.82,0,0,1-.76.91c-2.41.15-8.86.71-12.7,2.59a.63.63,0,0,1-.91-.49c-.46-3.38-1.89-15.05.13-15.87S182.79,255.5,184.75,254.43Z"/><path class="cls-9" d="M191.57,253.26s1.92,11.24.77,15.51c0,0,7.66-.19,8.23,1.28s0,.38,0,.38.9-17.29.64-18.06-.38-2-2.74-1A53.8,53.8,0,0,1,191.57,253.26Z"/><path class="cls-9" d="M189.21,273.75l-14,.64s-.83,13.15-2.29,15.13-2.94,5.87,3.95,6.06,7.34,0,7.34,0S191.19,279.82,189.21,273.75Z"/><path class="cls-9" d="M192.21,273.75s-2.55,21.3-5.36,21.92c0,0,12,1,13.53-1.94s-.19-19.21.51-21.51Z"/><path class="cls-9" d="M73.34,283.08s-3.66-1-3.32,2.91,2.34,6.12,0,28.25c0,0,9,1.11,13.47.51s5,1.36,5.44-1.53S90,285.67,87.3,283.08C85.51,281.39,86.45,284,73.34,283.08Z"/><path class="cls-9" d="M64.74,283.1H65c.49,0,2.45.12,2.45,3.32,0,3.66,1.7,26.9-2,28.34s-15.74,3.66-15.91-.85-.6-25.11-.6-25.11S45.53,283.63,64.74,283.1Z"/><path class="cls-9" d="M218.62,196.24s4.63-1.79,5.15,3.83,2.38,14.47-4.09,15-6.38-.68-7.15-4.43-3.15-11.14-.81-12.29A38.18,38.18,0,0,1,218.62,196.24Z"/></g></g></g><g id="roof"><path class="cls-10" d="M23.12,223c1.56-1.56,3.06-3.17,4.47-4.88,2-2.42,6.21-5.94,9.44,2.39,4.39,11.28,13.66,29.33-5.29,34.69,0,0-5.9.7-8.29-2.56a2.57,2.57,0,0,0-3.34-.67c-3.59,2-10.9,4.38-14.09.31C1.72,246.78,3.05,243,23.12,223Z"/><path class="cls-6" d="M71,233c2.12,1.81,5.11,3.92,7.89,4.36a6.83,6.83,0,0,1,5.67,4.8c.5,1.88-.22,3.69-1.45,6.22-4.73,9.72-17.84,1.35-17.84,1.35-2.77-.86-6.39,2.82-8.91,3.67-4.52,1.55-11.21-1.78-9-9.57,0-.07,0-.14.07-.2l.49-1.19a6.48,6.48,0,0,1,5-4c3.58-.53,9.1-1.89,12.86-5.38A3.92,3.92,0,0,1,71,233Z"/><path class="cls-10" d="M97.82,228.37c-1.52.95-1.61,3.37-10.31,5.95-1.23.36-.64,2.54.31,3.41,2,1.82,4.37,4.68,4.37,8a4.8,4.8,0,0,0,3.51,4.81,5.71,5.71,0,0,0,5.45-1.61,2.35,2.35,0,0,1,3.09-.12c2,1.65,5.87,3.61,11.46,1a3.43,3.43,0,0,0,1.29-5.13,23.09,23.09,0,0,1-2.94-5.08A3.85,3.85,0,0,0,110.4,237c-3.38,0-8.23-1.15-10.06-7.6A1.7,1.7,0,0,0,97.82,228.37Z"/><path class="cls-11" d="M124.21,221.72a2,2,0,0,1,2.15,1.88c.24,4.31,1.34,11.57,6,11.71a22.53,22.53,0,0,0,7.81-1.16,1.75,1.75,0,0,1,2.2,2.29c-2.34,6-7.36,16.94-12.92,15.82-5.78-1.17-10.53-10.22-12.51-14.59a4.13,4.13,0,0,1,.38-4.1c1.43-2,3.46-5.51,3.39-9.18a2.55,2.55,0,0,1,2.61-2.65A6.25,6.25,0,0,0,124.21,221.72Z"/><path class="cls-6" d="M50.71,199a3.23,3.23,0,0,0-4.83-.59c-3.92,3.51-10.54,9.85-10.26,12.33.4,3.51,8.21,11.74,9,18.67s9.11,7.61,15.11,4.4a15.06,15.06,0,0,0,6.08-7,4.08,4.08,0,0,0-2.37-5.61c-3-1.07-6.58-3.71-6.56-10.2a9,9,0,0,0-1.52-5.07Z"/><path class="cls-6" d="M90.34,203s-3.12,8.36-9.8,10.11a4.49,4.49,0,0,0-3.36,3.51c-.37,2.15-1.24,4.81-3.26,6.13a3.65,3.65,0,0,0-.8,5.56c2.45,2.62,4.08,5.2,8.9,4.68,3.6-.4,8.17-3,11.23-5.75,5.65-5.06,12.69-12.87,8.52-17.15C101.77,210.07,92.83,198.46,90.34,203Z"/><path class="cls-6" d="M118.77,200.46a12.9,12.9,0,0,0,5.68,7.36,3.2,3.2,0,0,1,.76,5,26.15,26.15,0,0,0-6.34,10.61c-2.6,8.4-11.29,12.71-15.41,6a9.73,9.73,0,0,1-1-7.5c1.39-5.46,5-17.23,11.22-22.91A3.14,3.14,0,0,1,118.77,200.46Z"/><path class="cls-6" d="M143.57,203.22c1.07,1.9,3,4.45,5.74,5.32a3.67,3.67,0,0,1,2.31,4.71c-2.25,6.6-6.88,18-12.05,18.27-7.29.42-13.94-11.54-11.57-17.17,1.72-4.12,8.67-9.37,12.29-11.91A2.27,2.27,0,0,1,143.57,203.22Z"/><path class="cls-11" d="M57.86,183.63a6.27,6.27,0,0,1,9.85,2.2c1.27,2.84,3.19,5.56,6,6.39a20.75,20.75,0,0,0,5.4.85c5.92.17,9.77,6.71,6.79,11.82a8.57,8.57,0,0,1-4.45,3.65,10.65,10.65,0,0,0-5.71,5c-1.8,3.59-5,8-9,6.14-5.5-2.55-8.48-10.6-8.43-15.48a3.85,3.85,0,0,0-1.77-3.27C53.11,198.66,47.37,192.93,57.86,183.63Z"/><path class="cls-6" d="M72.34,166.39a6.74,6.74,0,0,1,10.15-.08c2.88,3.2,7.51,6.62,13.21,4.56,9.77-3.52,10.79,11.45,4,13.73S89.82,198,79.45,191s-16-11.32-13.21-15.85A77.66,77.66,0,0,1,72.34,166.39Z"/><path class="cls-10" d="M160.88,181.58c-3.7.51-9-.53-13.21-8.37a4.71,4.71,0,0,0-7-1.54c-8.06,6.17-23.07,18.84-19,24.77,4.9,7.14,7.29,10.29,15.7,3.91a5.32,5.32,0,0,1,6.61.09c4.26,3.5,11.53,7.95,13.6-.18a94.87,94.87,0,0,1,5.54-15.62A2.16,2.16,0,0,0,160.88,181.58Z"/><path class="cls-11" d="M114.13,176.57a24.84,24.84,0,0,0,7,.86,2.11,2.11,0,0,1,1.91,3.24c-2.13,3.32-4.7,7.74-5.43,10.78a5.8,5.8,0,0,1-2.64,3.53,42,42,0,0,0-8.59,6.67A6.28,6.28,0,0,1,98.68,203c-3.36-1.81-7-4.32-6.62-6.58.53-3.45,13.12-11.1,16.76-17.61A4.71,4.71,0,0,1,114.13,176.57Z"/><path class="cls-6" d="M104.62,137.8a3.42,3.42,0,0,0-5.32-.53c-5.89,6-17.29,18-18,21.54-.82,4,9,11.79,16.87,8.78a25.89,25.89,0,0,1,9.2-1.49c3.31,0,7.34-1.51,9.52-8a7.23,7.23,0,0,0-1.54-7.19A118.07,118.07,0,0,1,104.62,137.8Z"/><path class="cls-6" d="M134.13,150c2.28,4.78,5.35,10.6,8.13,13.86a3.14,3.14,0,0,1-.44,4.51c-4.59,3.64-14.73,9.55-28,4.57a3.12,3.12,0,0,1-.93-5.29c3.67-3.15,8.57-8.36,8.62-13.69a8.14,8.14,0,0,1,2.76-5.9h0A6.28,6.28,0,0,1,134.13,150Z"/><path class="cls-6" d="M156.07,146.92c4.18,3.14,10.73,5.32,16.65-4.44,0,0,8-11.32,9-6.24S168.63,176.05,163.89,177c-5.15,1-12.95-.23-17.64-12a33.43,33.43,0,0,1-2.74-11.62A7.86,7.86,0,0,1,156.07,146.92Z"/><path class="cls-10" d="M130.85,119.39c1.49,2.6,3.62,5.8,6,7.65a4.27,4.27,0,0,1,.64,6c-5.71,7.18-17.36,19.51-23.78,9.93-8.73-13-11.17-10.31-6.46-17.14,4.29-6.23,6.57,1.28,18-7.56A3.81,3.81,0,0,1,130.85,119.39Z"/><path class="cls-11" d="M151.47,119.6C148.54,125.35,143,135.07,137,139a3.55,3.55,0,0,0-1.53,3.6c.51,2.9,2.65,4.6,10.87.51a9.65,9.65,0,0,1,6.64-.7c3.14.79,7.85,3.63,11.85,2.84a7.64,7.64,0,0,0,3.1-13.55c-3.93-3-9.49-7.76-12.42-12.25A2.31,2.31,0,0,0,151.47,119.6Z"/><path class="cls-6" d="M150.64,109.66c-3-2.37-7.33-6.49-8.38-11.27a5.93,5.93,0,0,0-5.53-4.71l-5.4-.23a5.24,5.24,0,0,0-4.61,2.36l-12.07,18.35a1.88,1.88,0,0,0,2.14,2.82l9.85-3a6.52,6.52,0,0,1,7.14,2.38l6.07,8.34a3,3,0,0,0,5-.07l6.66-9.65A4,4,0,0,0,150.64,109.66Z"/><path class="cls-11" d="M148,95.48c4.32.59,27.38.71,40.69-2.38a3.45,3.45,0,0,1,3.45,5.49c-1.65,2.14-9.46,6.31-14.63,7.68a3.4,3.4,0,0,0-2,1.49c-2.58,4.1-11.75,16.94-19.13,6C148.47,102,142.7,98,145.77,95.93A3.18,3.18,0,0,1,148,95.48Z"/><path class="cls-6" d="M189.05,105.7l-7.92,2.75a12.22,12.22,0,0,0-5.38,3.7,49.91,49.91,0,0,1-8.35,8.17,3.57,3.57,0,0,0-.51,5.46l5.73,5.83a4.29,4.29,0,0,0,4.77.91l7-3A3.2,3.2,0,0,0,186,127.9c1.52-3.35,6-13.5,6.78-19.28A2.78,2.78,0,0,0,189.05,105.7Z"/></g></g></g></svg>