<svg id="_1" data-name="1" xmlns="http://www.w3.org/2000/svg" viewBox="0 0 134.78 97.68"><defs><style>.cls-1{fill:#d0c9c9;}.cls-2{fill:#fff;}.cls-3{fill:#189f41;}.cls-4{fill:#ff9d47;}.cls-5{fill:#28bc54;}.cls-6{fill:#ffaf69;}.cls-7{fill:none;stroke:#ff9d47;stroke-miterlimit:10;stroke-width:2px;}</style></defs><title>skup-skup ღილაკი</title><g id="Layer_12" data-name="Layer 12"><path class="cls-1" d="M535.3,1335a1,1,0,0,0-.7,1c.32,2.81,2.89,16.66,7.08,20.55,5,4.63,10.77,9.65,30,11.71s45.41,1.32,66-9.47,21.07-19.53,20.81-22.1,12.89-2.4,9.15-13.74c0,0-.12-.49-.15-.74-.16-1.17-1.32-9.08,1.16-11.35a.67.67,0,0,0,.12-.56l-.78-12.79a1,1,0,0,0-1.25-.86Z" transform="translate(-533.93 -1271.51)"/><path class="cls-2" d="M618.76,1282.28c-.33.14-29.55-5.11-61,16.56-14.63,10.09-20.67,19.27-22.95,26.2a18.18,18.18,0,0,0,4.74,18.75c7.15,6.87,22.3,17.19,47.68,15.28,37.18-2.81,61.74-11.41,68.43-31.08a7.59,7.59,0,0,1,1.19-2.25,4,4,0,0,1,2.33-1.58c2.23-.43,9.94-3.64,7.33-11.57h0s-2.93-4.74-.3-8.56c2.91-4.24,3.12-13.54-3.09-16.19s-9.8-3.09-17.81-1.59-7.88-2-10.63-3.47S626.51,1279,618.76,1282.28Z" transform="translate(-533.93 -1271.51)"/></g><g id="Layer_7" data-name="Layer 7"><path class="cls-3" d="M661.11,1288.91l.21,8.94s.53,4.66-2.51,6.3c0,0,.73,12.38-.22,13.36s-5.5,4.85-9.61,2.85-8.32-11.23-11.13-8.47h0l-2.77-13a4.32,4.32,0,0,1,4.81.78,12.37,12.37,0,0,1,3.71,5.24c.85,1.91,5.36,6.59,8.89,5.14s5.19-3.57,5.45-4.12a5.26,5.26,0,0,0,.19-3.83c-.66-1.32-3.17-5-11-6.25C647.09,1295.86,657.22,1296.91,661.11,1288.91Z" transform="translate(-533.93 -1271.51)"/><path class="cls-3" d="M617.81,1276.74v7l8.05,4.4s1.83-2.41,0-4.54S620.36,1282.32,617.81,1276.74Z" transform="translate(-533.93 -1271.51)"/><path class="cls-4" d="M638.53,1309.6l.22,14.53a7.29,7.29,0,0,1-1.2,4.33c-3.44,5.14-15.06,17.14-49.12,18.74,0,0-34.59,2.48-42.92-16.3a4.61,4.61,0,0,1-.37-1.68l-.74-9.17s.85,7,10.88,11.22,35.54,9.45,56.62.56S637.49,1319.41,638.53,1309.6Z" transform="translate(-533.93 -1271.51)"/></g><g id="Layer_5" data-name="Layer 5"><path class="cls-5" d="M637.91,1281s.11-5.15-5.82-8-12.13.64-12.13.64-3.9,2.39.19,6.32c3.56,3.43,7.22,2.82,6.42,6.45l-.71,1.78s7.7,7.11,9.17,10.75c0,0,2.3-1.66,5.22,1.11s6.55,12.21,12.64,9.92c5.32-2,5.6-5.66,5.51-6.86-.27-3.61-7.09-6.69-10.06-7.1a14.81,14.81,0,0,0,9.08-2.46c1.94-1.43,3.93-3,2.88-6.86s-7.73-8.36-10.15-8.49S644.41,1277.22,637.91,1281Z" transform="translate(-533.93 -1271.51)"/><path class="cls-3" d="M625.14,1288.88a5.73,5.73,0,0,0,1.25-2.15,2.62,2.62,0,0,0-.27-2.21,5.73,5.73,0,0,0-1.75-1.52l-2.31-1.13a8.25,8.25,0,0,1-4-3.85,3.59,3.59,0,0,1,.25-3.17,5.68,5.68,0,0,1,2.2-2,11.39,11.39,0,0,1,5.35-1.3,16.06,16.06,0,0,1,5.37.77,10.24,10.24,0,0,1,4.61,2.94,9.24,9.24,0,0,1,2.18,5v0a5.54,5.54,0,0,1,0,1.67,6.89,6.89,0,0,1-.36,1.57,7.26,7.26,0,0,1-.69,1.43,9,9,0,0,1-1,1.23l-.08-.06a8.24,8.24,0,0,0,.83-1.28,6.94,6.94,0,0,0,.57-1.41,6.26,6.26,0,0,0,.14-3h0a8.69,8.69,0,0,0-2.2-4.54,10.1,10.1,0,0,0-4.33-2.61,15.49,15.49,0,0,0-5.06-.66,11.65,11.65,0,0,0-4.94,1.18,5,5,0,0,0-1.87,1.65,2.71,2.71,0,0,0-.21,2.4,8,8,0,0,0,3.55,3.54l2.27,1.23a5.81,5.81,0,0,1,1.85,1.81,3,3,0,0,1,.14,2.55,5.47,5.47,0,0,1-1.48,2.11Z" transform="translate(-533.93 -1271.51)"/><path class="cls-3" d="M637.64,1281.15a17.31,17.31,0,0,1,11.81-3.35,12.66,12.66,0,0,1,6,2.24l.68.44.61.52c.4.36.82.7,1.21,1.06a14.84,14.84,0,0,1,2,2.52,7.34,7.34,0,0,1,1.13,3.23,5.52,5.52,0,0,1-.81,3.42,8.42,8.42,0,0,1-2.32,2.43,12.66,12.66,0,0,1-2.82,1.53,19.21,19.21,0,0,1-3,.92,10.68,10.68,0,0,1-3.18.21,26.63,26.63,0,0,1-6-1.29l0-.1a29.13,29.13,0,0,0,6,.86,13.05,13.05,0,0,0,5.88-1.31,10.27,10.27,0,0,0,4.68-3.71,4.6,4.6,0,0,0,.64-2.87,6.35,6.35,0,0,0-1-2.8,13.85,13.85,0,0,0-1.89-2.37c-.36-.35-.75-.67-1.13-1l-.56-.51-.64-.42a13,13,0,0,0-1.28-.8l-1.37-.65-1.45-.47a14.55,14.55,0,0,0-1.49-.3,18.19,18.19,0,0,0-11.64,2.66Z" transform="translate(-533.93 -1271.51)"/><path class="cls-3" d="M647.79,1296a24.65,24.65,0,0,1,5.53,1.56,11,11,0,0,1,4.79,3.55,4.56,4.56,0,0,1,.74,3.21,6.84,6.84,0,0,1-1.29,2.93,8.24,8.24,0,0,1-5.21,3.35,7.62,7.62,0,0,1-6-1.71,13.55,13.55,0,0,1-3.54-4.78,12.7,12.7,0,0,0-3.21-4.34,4.38,4.38,0,0,0-2.36-1.1,3.91,3.91,0,0,0-2.59.63l-.07-.08a4,4,0,0,1,2.68-.88,4.9,4.9,0,0,1,2.65,1,13.25,13.25,0,0,1,3.58,4.39,13.74,13.74,0,0,0,3.42,4.45,6.66,6.66,0,0,0,5.25,1.43,7.28,7.28,0,0,0,4.64-2.9,6,6,0,0,0,1.16-2.52,3.86,3.86,0,0,0-.55-2.67,10.5,10.5,0,0,0-4.35-3.49,28,28,0,0,0-5.32-1.93Z" transform="translate(-533.93 -1271.51)"/><path class="cls-6" d="M577.5,1283.64a80.66,80.66,0,0,1,26.91-4c5.24.22,10.76,1.25,14.72,4.06,10.08,7.15,24.89,21.06,14.81,35.36s-37.92,17.87-54.13,16.85S541,1331,546.49,1312.15C550.24,1299.24,563.72,1288.28,577.5,1283.64Z" transform="translate(-533.93 -1271.51)"/><path class="cls-7" d="M600.23,1280a39.67,39.67,0,0,1,29,12.08c3.85,4.09,7.81,9.43,8.25,16.29,1.15,17.74-31.79,26.68-46.21,27.83-13.24,1-55.9-.33-44.17-27.06C556.29,1288.2,581.11,1279.94,600.23,1280Z" transform="translate(-533.93 -1271.51)"/></g></svg>