<svg xmlns="http://www.w3.org/2000/svg" viewBox="0 0 305.17 457.34"><defs><style>.cls-1{fill:#27a5e6;}.cls-2{fill:#77d7ff;}.cls-3{fill:#fffbf5;}</style></defs><title>N1 tree</title><g id="Layer_2" data-name="Layer 2"><g id="N1_tree" data-name="N1 tree"><path class="cls-1" d="M117.83,15.1S125-6.35,146.76,7.61c0,0,25.88-22.81,33.71,10.55,0,0,23.14-8.51,23.14,19.41,0,0,17-9.54,18.39,8.17,0,0,25.87-3.41,23.83,16.68,0,0-1.71,9.53-6.47,11.23,0,0,8.85,8.51-3.06,17,0,0,25.87-6.81,22.46,17,0,0,28.94-.34,20.77,24.17,0,0-3.06,6.47-6.81,8.52,0,0,9.53,9.87-.34,17.7,0,0-4.77,4.76-9.87,3.4,0,0,12.93,2.72,7.49,12.6,0,0,17.36-2.05,16.34,11.91,0,0,.34,4.43-1.7,6.13,0,0,16.34,1,13.95,14s-5.44,7.49-5.44,7.49,12.93,15-9.88,20.76c0,0,13.28,3.07,8.17,13.28,0,0,18.39,3.06,12.6,18.38s-15.32,11.58-15.32,11.58,10.55,5.1,5.45,15.66-16.68,8.17-20.77,0c0,0,2,18.38-17.7,8.51,0,0-1.36,11.23-13.28,7.49,0,0-4.08,17.36-23.83,7.83,0,0-12.93,22.12-38.81,6.46,0,0-18.38,17.71-32.68,3.07,0,0-2.72,10.21-12.93-.68,0,0-8.17,21.46-26.56,6.47,0,0-5-7.45-4.72-10.52,0,0-6,4.73-11.49-1.27,0,0-9.45,14.93-24.76-3.45,0,0-22.86,7.53-29.24-8s4.6-18,4.6-18-20.94,4.08-15.07-17.36c0,0-18.12,1.15-13.53-15.19,0,0-20-.39-11.1-14.69,0,0,3.31-2.68,5.74-4.21,0,0-7.4-8.93,2.3-12.13,0,0,6.13-1.27,8.81.13,0,0-5-10.59,6.76-12.64,0,0-24-7.66-10.08-23.74,0,0-19.79-12.28-6.39-22.42,0,0-7.4-15.11,8.3-11.16,0,0-9.32-17.61,8.94-20.17,0,0,0-15.32,12.76-10.34,0,0,.26-8.29,11.11-4.08,0,0-.77-7.79,14.94-8.3,0,0-18.77-4.34-12.13-13.79,0,0-20.17-5.87-3.7-17.23,0,0-9.83-13.66,6.64-21.06,0,0,11.61-5.49,17-2.17,0,0,1-8.43,11.49-7.79,0,0-15.19-20.94,8-24.13C92.81,28.63,92.3,4.76,117.83,15.1Z"/><path class="cls-2" d="M59.89,228l-.71-.35a4.73,4.73,0,0,0-6.4,2.22h0a4.46,4.46,0,0,0-.09,3.63c1.79,4.37,6.68,14.56,12.2,11.73,6.76-3.47,10-7.57,7.26-17.41a3.93,3.93,0,0,0-1.7-2.34c-1.13-.7-2.84-1-4.8,1.35A4.77,4.77,0,0,1,59.89,228Z"/><path class="cls-2" d="M79,186.74s4,4.4,7.53,1.46,6.57,1.15,4,6.58S79.85,203,76.47,197,74.71,184.3,79,186.74Z"/><path class="cls-2" d="M116.79,161.66a3.73,3.73,0,0,1,2.31,1.22c.56.59,1.59,1.13,3.07-.14,2.36-2.05,5-1.54,5,1.85s-1.92,10.08-7.28,7.15C115.08,169.11,112.58,161.3,116.79,161.66Z"/><path class="cls-2" d="M87.27,250.42s4.26,2.89,5.54.42,5.19-.51,3.66,2.22-6.9,6.29-9.2,2.29S86.17,250.5,87.27,250.42Z"/><path class="cls-2" d="M121.15,231.1s2.46,3,5.1,0,5.7,0,5.7,3.15-1.78,10.81-8,9.95-9.78-8.34-8.17-12.08S121.15,231.1,121.15,231.1Z"/><path class="cls-2" d="M89.74,293.52s3.19,2.3,4.34,0,4.73-1.91,4.47.51-1.69,10.22-7.16,6.64S85.66,290.72,89.74,293.52Z"/><path class="cls-2" d="M190.85,255.35c.46.51,3.19,2.94,5.23,0s8,1.54,4.73,5.49-9.83,8.05-14.3,1.28S188.17,252.42,190.85,255.35Z"/><path class="cls-2" d="M180.38,220.89c-.85.28-8.17-2.69-7.15,3.19s7,5.36,7.15,3.44-.38-2.75,2.68-3S183.06,220,180.38,220.89Z"/><path class="cls-2" d="M223.34,227.69A3.73,3.73,0,0,0,226,229c1.27,0,2.94-.51,4.55-2.76,3.19-4.47,7.66-6.64,10-1.41s0,17.75-6.77,17.24-17.1-5.24-15.19-12.13C220,224.78,222.28,226.5,223.34,227.69Z"/><path class="cls-2" d="M233,189.48s4.08,3.19,6.63-.64,5.24-.89,4.73,2.81-3.19,10.73-7.41,9.32-5.23-4.93-6.12-6.87C229.8,191.91,229.53,187.44,233,189.48Z"/><path class="cls-2" d="M192.89,180.42s4,2.93,6.26,0,6.25-2.88,6.38,1.3-1.79,13.76-8.94,10.44S185.61,176.84,192.89,180.42Z"/><path class="cls-2" d="M214.59,154.12s2.86,1.91,3.73,0,4.32.13,2.4,3.7-4.47,5.11-7.15,1.92S211.74,153.34,214.59,154.12Z"/><path class="cls-2" d="M158.3,134.46s2.8,2,4.34,0,4.08-2.17,4.08,3.57-2.68,7.54-7.91,4.47S155.49,131,158.3,134.46Z"/><path class="cls-2" d="M189,141.28a4.26,4.26,0,0,0,3.17-1c1.22-1.1,2.92-2.12,3.31.19.64,3.7-1.53,7.79-3.95,6.38C189.32,145.59,184.69,141,189,141.28Z"/><path class="cls-3" d="M151,171.52c1.39,11.91,3.53,33.32-13.95,29.67a1.51,1.51,0,0,0-1.71,2.1c4.09,8.87,11.36,8.15,16.08,33.78.35,1.88,3.76,29.39,3.83,31.31.22,6.21-5.59,19.2-21.32,11.23-19.66-10-27.83-20.65-27.83-37.52S102,231.94,102,231.94s-4.09,17.37,2.3,33.8c0,0-4.45,4.11-18.21,0a1.82,1.82,0,0,0-1.83,3c3.32,3.31,9.33,7.6,19.78,10.62,19.4,5.62,40.6,11.3,42.89,22.25s3.83,75.29,2.81,101.33-4.08,53.62,9.45,54.38,17.36-16.08,14.55-43.66-8.17-68.17-7.15-81.7-.76-17.45,13.28-26.3c11-6.94,30.89-13,34.21-27.06s-.25-16.34-1.53-17.11c0,0-.35,14.46-10,24.26-30.47,31.06-42-16.17-29.46-33.71,8.81-12.26,18-6.38,17.21-12s-2.52.26-11.6.26-23.13-8.68-21.85-36.26a52,52,0,0,1,11.23-24.25c5.77-7,6.67-12.33,5.48-15.15a2.64,2.64,0,0,0-5,.55c-1.2,5.15-4.61,15.95-11,9.94-1.41-1.32-5.14-10.39-6.25-11.36C149.43,162.08,150.64,168.61,151,171.52Z"/></g></g></svg>