<svg xmlns="http://www.w3.org/2000/svg" viewBox="0 0 317.29 417.26"><defs><style>.cls-1{fill:#f0a8da;}.cls-2{fill:#fffbf5;}.cls-3{fill:#f9cded;}</style></defs><title>N2 tree_1</title><g id="Layer_2" data-name="Layer 2"><g id="N3_tree" data-name="N3 tree"><path class="cls-1" d="M138.69,22.44s17.1-44.38,25.42-8.32c0,0,15.25-15.72,21.73.46S200.17,8.11,208,17.82s8.79,11.09,2.78,26.35c0,0,19.41-14.33,25.42,0s1.85,21.72,1.85,21.72S257,54.33,264,65.89s-2.78,19-2.78,19,27.74-3.69,14.33,17.11c0,0,22.19-2.78,17.1,20.34,0,0-2.77,6.93-5.08,7.39,0,0,20.34-5.08,23.57,17.57,0,0,1.85,5.54-6,11.55,0,0,26.81,9.71.92,26.81,0,0,21.73,24.5-7.86,24.5,0,0,2.31,7.4-5.08,9.25,0,0,19.41,21.72-6.94,20.8,0,0,5.09,13.4-12.94,8.32,0,0,14.79,17.56,4.16,27.73S258,262.81,258,262.81s-10,25.42-30,5.54c0,0-14,38.37-33.83-2.77,0,0-14.8,31-33.29-7.17,0,0-16.64,9.48-16.64-9,0,0-1.85,15.25-11.55,9,0,0,13.4,12.72-7.4,14.11,0,0,4.62,28.19-21.72,23.57S89.69,270.2,89.69,270.2s-5.09,13.41-15.26,4.16c0,0-12.48,11.1-18-4.62,0,0-35.13,17.57-23.58-22.19,0,0-37.44,11.56-32.36-18.25,0,0,1.62-9.48,13.18-11.1,0,0-20.8-3.7,2.31-17.1,0,0-22.88-13.41,3.7-19.65,0,0-22-28,13.4-19.18,0,0-4.85-15,14.56-8.78,0,0-6.47-4.86-.23-6.71,0,0-27.27,1.39-10.17-15.25,0,0-32.12-24.27-15.71-38.37,0,0,10.4-9.47,23.11,9.48,0,0-2.31-8.78,6.93-8.55,0,0-15.25-22,8.55-16,0,0-17.33-34.9,16.88-30.28,0,0-17.11-21.49,2.54-30.5s22.65,24,22.65,24S102.17-10.61,138.69,22.44Z"/><path class="cls-2" d="M157,109.8s-.93-31.66,3-25.65.46,88.75,9.71,82.74,42.52-31.43,40.67-23.11-38.13,22.42-40.21,39.06-5.78,37,4.39,34.44,36.9-22.19,35.9-15.72-32.2,22.88-34.51,29.58-8.79.7-5.32,86.21,2.54,101-7.63,99.85-18.95-3-17.56-41.37,9-139.37,2.31-147.92-43.45-20.57-42.76-24.5,17.8-1.16,30.74,5.32,19.42-8.09,15-28.66-15.25-34.9-9.24-33.29,14.33,15,14.33,15-.69-47.61-8.09-54.55S135,92.93,140.3,94.78,151.47,101.5,157,109.8Z"/><path class="cls-3" d="M65.34,182.8l-.68-.34a4.55,4.55,0,0,0-6.15,2.13h0a4.33,4.33,0,0,0-.09,3.49c1.73,4.19,6.42,14,11.72,11.25,6.49-3.32,9.61-7.26,7-16.71a3.79,3.79,0,0,0-1.63-2.24c-1.08-.67-2.72-.94-4.61,1.29A4.57,4.57,0,0,1,65.34,182.8Z"/><path class="cls-3" d="M88.89,143.17s3.86,4.23,7.23,1.41,6.31,1.1,3.8,6.31S89.69,158.74,86.44,153,84.76,140.83,88.89,143.17Z"/><path class="cls-3" d="M117,108.14a3.58,3.58,0,0,1,2.22,1.18c.54.56,1.53,1.08,2.95-.14,2.26-2,4.78-1.47,4.78,1.77s-1.84,9.69-7,6.87C115.4,115.3,113,107.8,117,108.14Z"/><path class="cls-3" d="M88.83,210s4.09,2.78,5.31.41,5-.49,3.52,2.13-6.62,6-8.83,2.2S87.77,210.07,88.83,210Z"/><path class="cls-3" d="M124.56,181s2.37,2.86,4.9,0,5.47,0,5.47,3-1.71,10.38-7.68,9.56-9.39-8-7.84-11.6S124.56,181,124.56,181Z"/><path class="cls-3" d="M95.1,247.8s3.06,2.21,4.17,0,4.53-1.84,4.29.49-1.62,9.8-6.88,6.37S91.18,245.1,95.1,247.8Z"/><path class="cls-3" d="M211.11,227.84c.45.49,3.07,2.82,5,0s7.72,1.47,4.53,5.27-9.43,7.72-13.72,1.23S208.54,225,211.11,227.84Z"/><path class="cls-3" d="M241.68,197.82a3.59,3.59,0,0,0,2.56,1.27c1.21,0,2.82-.49,4.36-2.65,3.06-4.29,7.35-6.37,9.56-1.35s0,17-6.5,16.55-16.42-5-14.58-11.65C238.46,195,240.67,196.68,241.68,197.82Z"/><path class="cls-3" d="M206.31,170.27s3.92,3.07,6.38-.61,5-.86,4.53,2.7-3.06,10.29-7.11,8.94-5-4.73-5.88-6.59C203.26,172.6,203,168.31,206.31,170.27Z"/><path class="cls-3" d="M187.8,121.35s3.8,2.82,6,0,6-2.77,6.13,1.25-1.72,13.21-8.58,10S180.81,117.91,187.8,121.35Z"/><path class="cls-3" d="M222.22,114s2.74,1.84,3.57,0,4.15.12,2.31,3.56-4.29,4.9-6.86,1.83S219.48,113.22,222.22,114Z"/><path class="cls-3" d="M181.33,84.62s2.7,2,4.17,0,3.92-2.08,3.92,3.43-2.57,7.23-7.6,4.29S178.64,81.31,181.33,84.62Z"/><path class="cls-3" d="M211.19,77.78a4.09,4.09,0,0,0,3.05-1c1.17-1,2.79-2,3.18.18.61,3.56-1.47,7.48-3.8,6.13C211.53,81.91,207.1,77.47,211.19,77.78Z"/></g></g></svg>