<svg xmlns="http://www.w3.org/2000/svg" viewBox="0 0 349.56 428.83"><defs><style>.cls-1{fill:#de8bc4;}.cls-2{fill:#f9bee7;}.cls-3{fill:#fffbf5;}</style></defs><title>N5 tree</title><g id="Layer_2" data-name="Layer 2"><g id="N5_tree" data-name="N5 tree"><path class="cls-1" d="M172.55,17.73S184.13-5.08,194.68,1.05s10.89,7.83,14,16.68c0,0,16.68-12.94,23.49,2.38a20.86,20.86,0,0,1,2.13,15.7s10.46-11.74,17.36-7.53,5.87,18,13.27,19.15,28.09,6.64,6.9,26.81c0,0,14.17,18.12-16.34,21.57,0,0,4.72,1.28,2,5.49,0,0,15.45-10.85,21.19,3.06,0,0,17.62-8.8,19.41,1.54,0,0,2.8,6.12,0,7.91,0,0,23.1-10.59,28,9.45,0,0,2.43,8.68-4.08,13.4,0,0,20.42-3.44,24.25,12S337,163.73,337,163.73s24.64,9.19,4.85,27.7a8.84,8.84,0,0,1-5.1,2.42S340,216.07,319,200.24c0,0,1.41,6.38-3.83,7.27,0,0,13.53.64,8.55,13.54,0,0-2.29,7.66-5.23,8.29,0,0,15.45,4.47,11.23,15.45S318,250.92,318,250.92s13.4,12.13,3.45,18.51S308.3,273,308.3,273s8.93,8.67,4.21,12.89-9.32,7.28-21.45-2.29c0,0,2.68,15.32-2.17,19.91s-17.61,5.11-24.38-10.72c0,0-1.53,14.94-15.45,9.32,0,0,4.73,20.42-8.17,20.94s-17-15.83-17-15.83-10.34,19.66-20.68-1.41c0,0-21.19,9.45-28.72-14.3,0,0-15.45,19.66-32.68,12,0,0-4.72,22-19.53,26.81s-14.68-6.76-28.47,0-27.57,6.51-26-9.06c0,0-26.81,11.62-29.24-9.45,0,0,4-14.17,13.28-15.83,0,0-20.68-3.83-3.57-22.85l7-6.51s-27.71,6-25.41-15.45c0,0-28.08,14.94-29.87-5.1,0,0,.89-12.13,8.94-16.34,0,0-11.49-4.85-3.83-15.45s10.72-10.21,10.72-10.21S-1.91,182.36,26.68,187.6c0,0-16.59-17,3.7-23.75,0,0-19.66-11.1-9.32-31.53,0,0,5.37-5.87,10.6-7.4,0,0-8.94-2-7.92-20.43s31.54-1,31.54-1S43.91,91.85,52.34,85s25.15-.25,25.15-.25-8.17-20.81,11-17c0,0-17.87-26.17-1.53-32.3,0,0,10.72-4.85,20.42,5.23,0,0-6.76-16.34,10.21-17.1,0,0,8.81-.13,11.37,6.89,0,0-.39-15.7,15.57-8.94C144.51,21.51,149.4-12.1,172.55,17.73Z"/><path class="cls-2" d="M111.62,151.6s-5-3.41-5,1.45,13.1,11.57,13.87,5.78c.7-5.31-.39-11.86-5.18-9.31a4.72,4.72,0,0,0-1.68,1.67A1.38,1.38,0,0,1,111.62,151.6Z"/><path class="cls-2" d="M108.51,208.28s1.92-2.94,3.7-1,5,.13,6.13-1.28,7.28-2.81,6,7.53-11.23,9.45-14.68,1.92C109.66,215.43,106.78,209.81,108.51,208.28Z"/><path class="cls-2" d="M85.91,232.53s-5.87-5.61-8.42-1.27,6.89,12,10.85,10.08S94.34,226.92,85.91,232.53Z"/><path class="cls-2" d="M126.13,251.05s5.36,5.23,11.1-1.41,11.49,7.28,3.07,13.15-16.47,4.5-19.66-7.45S126.13,251.05,126.13,251.05Z"/><path class="cls-2" d="M244.09,210.83a14.41,14.41,0,0,0,11.61.9c6.39-2.3,5.87,14.8-1.66,14.93s-9.95-1.91-9.95-1.91S231.07,210.12,244.09,210.83Z"/><path class="cls-2" d="M218.94,182.11a6.21,6.21,0,0,0,7.53,0c3.83-2.94,6.64,3.06,2.93,8.3s-8.68,2.93-11.74-1.41S216.66,181,218.94,182.11Z"/><path class="cls-2" d="M274.47,165.51s2.3,4.09,8.17,0,7.66,3.71,4,9.58-8.94,7.53-14.17,3.32S262.34,155.94,274.47,165.51Z"/><path class="cls-2" d="M210,138.83s2.81,3.45,7.66-.89,7.91,1.28,5.23,7.79-6.63,12.51-14.42,5.1S202.21,134.88,210,138.83Z"/><path class="cls-2" d="M252.77,250.53s1,5.62,7.35,1.92,4.93,4.85,0,7.66-12.33,2.81-13.48-4.79S252.51,245.94,252.77,250.53Z"/><path class="cls-3" d="M189.7,226.15s-1.66-28.43,5.36-32.72,2.34,5.55,1,11c-.91,3.76,0,27.19,2,38.3s1.21,29.61,20.1,13.66,6.77,3.95-.64,11.36-12.51,5-12.38,15.45,3.7,54.51,6.76,66.89,6,53.11,4.73,58.21S209,445.09,192.51,418c0,0,2.94-49.53.64-85.4s-1.36-56.55-3.62-65.36-4.3-23.35-18.72-40.59-22.34-27.84-18.13-27.33S174,218.74,174,218.74s-11.36-37-9.32-67.78,6.13-19.66,7.15-8.43S177.06,200.24,189.7,226.15Z"/></g></g></svg>