<svg xmlns="http://www.w3.org/2000/svg" viewBox="0 0 228.28 280.05"><defs><style>.cls-1{fill:#27a5e6;}.cls-2{fill:#77d7ff;}.cls-3{fill:#fffbf5;}</style></defs><title>N7 tree</title><g id="Layer_2" data-name="Layer 2"><g id="N7_tree" data-name="N7 tree"><path class="cls-1" d="M112.69,11.58s7.56-14.9,14.45-10.9,7.11,5.12,9.11,10.9c0,0,10.9-8.45,15.34,1.55A13.62,13.62,0,0,1,153,23.39s6.84-7.67,11.34-4.92S168.15,30.22,173,31s18.34,4.34,4.5,17.51c0,0,9.26,11.84-10.67,14.09,0,0,3.09.83,1.33,3.59,0,0,10.09-7.09,13.84,2,0,0,11.51-5.76,12.68,1,0,0,1.83,4,0,5.17,0,0,15.09-6.92,18.25,6.16,0,0,1.59,5.67-2.66,8.76,0,0,13.34-2.25,15.84,7.83s-6,9.84-6,9.84,16.09,6,3.17,18.09a5.83,5.83,0,0,1-3.33,1.59s2.08,14.5-11.59,4.17c0,0,.92,4.16-2.5,4.75,0,0,8.83.41,5.58,8.84,0,0-1.5,5-3.41,5.41,0,0,10.08,2.92,7.33,10.09s-7.67,4-7.67,4,8.76,7.92,2.25,12.09-8.58,2.34-8.58,2.34,5.83,5.66,2.75,8.41-6.09,4.76-14-1.49c0,0,1.75,10-1.42,13s-11.5,3.34-15.92-7c0,0-1,9.75-10.09,6.08,0,0,3.09,13.34-5.33,13.68s-11.09-10.34-11.09-10.34-6.75,12.84-13.51-.92c0,0-13.84,6.17-18.75-9.34,0,0-10.09,12.84-21.35,7.84,0,0-3.08,14.34-12.75,17.51s-9.59-4.42-18.59,0-18,4.25-17-5.92c0,0-17.51,7.59-19.09-6.17,0,0,2.58-9.25,8.67-10.34,0,0-13.51-2.5-2.34-14.92l4.59-4.25S18,178,19.51,164c0,0-18.34,9.75-19.51-3.33,0,0,.58-7.92,5.84-10.68,0,0-7.51-3.16-2.51-10.08s7-6.67,7-6.67-11.59-14.18,7.08-10.76c0,0-10.83-11.09,2.42-15.5,0,0-12.84-7.26-6.08-20.6,0,0,3.5-3.83,6.92-4.83,0,0-5.84-1.34-5.17-13.34s20.59-.67,20.59-.67S28.68,60,34.18,55.48s16.42-.16,16.42-.16-5.33-13.59,7.17-11.09c0,0-11.67-17.09-1-21.09,0,0,7-3.17,13.34,3.41,0,0-4.42-10.67,6.67-11.17,0,0,5.76-.08,7.42,4.51,0,0-.25-10.26,10.17-5.84C94.37,14.05,97.57-7.9,112.69,11.58Z"/><path class="cls-2" d="M72.89,99s-3.28-2.22-3.28,1,8.56,7.56,9.06,3.78c.46-3.47-.25-7.75-3.38-6.08a3,3,0,0,0-1.1,1.08A.89.89,0,0,1,72.89,99Z"/><path class="cls-2" d="M70.86,136s1.25-1.92,2.42-.67,3.25.08,4-.83,4.75-1.84,3.92,4.92-7.34,6.17-9.59,1.25C71.61,140.69,69.74,137,70.86,136Z"/><path class="cls-2" d="M56.11,151.86s-3.84-3.67-5.51-.84,4.51,7.84,7.09,6.59S61.61,148.19,56.11,151.86Z"/><path class="cls-2" d="M82.37,164s3.5,3.41,7.25-.92,7.5,4.75,2,8.59-10.75,2.94-12.84-4.87S82.37,164,82.37,164Z"/><path class="cls-2" d="M159.4,137.69a9.42,9.42,0,0,0,7.59.58c4.17-1.5,3.83,9.67-1.09,9.75s-6.5-1.25-6.5-1.25S150.9,137.22,159.4,137.69Z"/><path class="cls-2" d="M143,118.93a4.06,4.06,0,0,0,4.92,0c2.5-1.92,4.33,2,1.91,5.42s-5.67,1.91-7.67-.92S141.49,118.22,143,118.93Z"/><path class="cls-2" d="M179.24,108.09s1.5,2.67,5.34,0,5,2.42,2.58,6.25-5.83,4.92-9.25,2.17S171.32,101.84,179.24,108.09Z"/><path class="cls-2" d="M137.14,90.67s1.84,2.25,5-.59,5.17.84,3.42,5.09-4.33,8.17-9.42,3.33S132.06,88.08,137.14,90.67Z"/><path class="cls-2" d="M165.07,163.61s.69,3.67,4.8,1.25,3.22,3.17,0,5-8.05,1.83-8.8-3.13S164.9,160.61,165.07,163.61Z"/><path class="cls-3" d="M123.89,147.69s-1.09-18.57,3.5-21.37,1.53,3.62.66,7.2c-.59,2.45,0,17.75,1.3,25s.79,19.34,13.13,8.92,4.42,2.58-.42,7.42S133.89,178.12,134,185s2.42,35.59,4.42,43.68,3.92,34.68,3.09,38-5,24-15.76,6.33c0,0,1.92-32.34.42-55.77s-.89-36.93-2.37-42.69S121,159.29,111.55,148,97,129.85,99.71,130.18s13.92,12.67,13.92,12.67-7.42-24.17-6.08-44.26,4-12.84,4.66-5.51S115.63,130.77,123.89,147.69Z"/></g></g></svg>