<svg id="path" xmlns="http://www.w3.org/2000/svg" viewBox="0 0 703.53 1100.74"><defs><style>.cls-1{fill:#7af29e;}</style></defs><title>path</title><path class="cls-1" d="M511.14,1219.83a86.93,86.93,0,0,0,1,9.25c2.83,15.39,11.16,62.23,10.31,76.24-1,16.86-4.59,65.37,46.47,63.83s69.7-4,93.7-34.34-11.49-68.63-21.7-88.72-26-63.71-35.23-116.42c-9.23-52.92-6.89-48.65-13.83-65.18-9-21.45-32-33.27-44.39-40.19-51.06-28.42-108.79-85.44-130.44-117.78-22.37-33.43-10.76-19.33-27.1-41.12s-27.31-28.67-51.14-87.22-36.32-84.33-28.68-109.11,8.09-25.79,9.62-31.4a86.52,86.52,0,0,1,6.21-16.6c3.28-7,28-76.77,83.56-117,9.27-6.72,21.06-11.66,30.53-14.4,19.17-5.54,55.81-5.78,106.42.52,76.6,9.53,153.87-19.55,223.15-59.32C854.53,382.12,899,358,869.16,317.43c-23.38-31.77-68.68-22.71-96.22-39.22-23.63-14.16-53.66-13-75.12,4.22-.71.57-1.41,1.15-2.1,1.75C670.82,305.37,673,302.94,673,302.94s20.69,11.89,57,34.74-43.06,62.95-134.44,63.14c-116.85.25-240.34,2.21-276.42,43.74S232.69,564.9,196.69,611.62s-19.91,75.07-4.59,108.77S259,855.59,258.74,884.3c-.43,40.26,5.87,45.71,34.14,64.44,5.3,3.52,11,6.43,15.67,10.73,22.85,20.91,91.68,82.18,110.27,111.73C459.31,1135.54,505,1136.3,511.14,1219.83Z" transform="translate(-174.92 -268.45)"/></svg>