<svg xmlns="http://www.w3.org/2000/svg" viewBox="0 0 571.91 934.52"><defs><style>.cls-1{fill:#7af29e;}.cls-2{fill:#5ae182;}</style></defs><title>path grass</title><g id="Layer_2" data-name="Layer 2"><g id="path_grass" data-name="path grass"><path class="cls-1" d="M11.56,293.69S5.1,280.23,0,276c0,0,8.42,2.27,10.7,5.43,0,0-2.58-7.22-1.61-8.12,0,0,2.88,5.4,4.53,5.23,0,0-4.32-9.39-6.52-10.21,0,0,6.75,2.09,9,5.36,0,0-1.5-4.41-3.1-5.65s4-.15,6.14,3.15c0,0-1.28-10,1.85-11.21,0,0,.1,7.39,2.17,8.83a1.4,1.4,0,0,0,.58-1.79s4.78,9,8.65,9.4c0,0-3.1-6.33-7.15-9.86,0,0,11,3.88,15.57,11.13Z"/><path class="cls-1" d="M104.26,173.31s-1.84-13.63-5.1-18.83c0,0,6.73,4.39,7.84,7.81,0,0-.21-7.07.9-7.58,0,0,1,5.56,2.48,5.88,0,0-1.12-9.46-2.82-10.8,0,0,5.33,3.74,6.37,7.25,0,0-.06-4.3-1.11-5.84s3.52,1,4.49,4.51c0,0,1.73-9.17,4.8-9.3,0,0-2,6.5-.6,8.35a1.3,1.3,0,0,0,1-1.4s1.62,9.29,4.91,10.7c0,0-.93-6.44-3.47-10.67,0,0,8.57,6.53,10.48,14.17Z"/><path class="cls-2" d="M146.23,278.67s4.62-10.74-5.1-9.91-6,9.71-6,9.71-4.31-2.6-5.58,2,1.7,6.91,3.6,6.8c0,0-6,4.22.23,6.38A21.49,21.49,0,0,0,146.23,278.67Z"/><path class="cls-2" d="M114.21,342.06s1.4-12.24-6.1-14.72c1.41-.44-7.4-17.64,8.06,3.54C116.17,330.88,123.16,344.59,114.21,342.06Z"/><path class="cls-2" d="M116.94,333.32s-1.27-17.47-12.83-20.88c0,0,9.4.91,12.83,6.13,0,0,4-10,0-14.52a30.4,30.4,0,0,1,3.65,13.61Z"/><path class="cls-2" d="M244.08,218.88s-2.55-6.9,1.79-6.9,6.13,4.6,6.13,4.6-2.56-10.72,4.08-8.94c0,0-.51-12,7.15-9.95s5.62,9.7,5.62,13.27c0,0,14-7.91,6.74,7.92S244.08,218.88,244.08,218.88Z"/><path class="cls-2" d="M312.51,237.75s-2.56-6.64-8.17-7.91c0,0,8.42.76,10.72,3.95l-4.34-9.11s5.36,2.3,6.38,6.54c0,0,5.87-6.24,9.7-4.45,0,0-11.23,8.68-9.19,11Z"/><path class="cls-1" d="M257.7,142.4s-3.39-8.81-10.84-10.5c0,0,11.18,1,14.22,5.25l-5.75-12.08s7.11,3.05,8.46,8.66c0,0,7.79-8.26,12.87-5.89,0,0-14.9,11.51-12.19,14.56Z"/><path class="cls-1" d="M450.48,126s-3.91-3.53-1.15-5,5.41.89,5.41.89-5.18-6-.36-7c0,0-4.31-7.45,1.23-8.7s6.79,4.3,8,6.58c0,0,6.27-9.68,6.91,2.79S450.48,126,450.48,126Z"/><path class="cls-1" d="M122.57,553.37s5.1-9.15,4.25-12.76a16.66,16.66,0,0,1,3.54,9.08s2.95-6.63,2.31-8.89c0,0,3.67,8.08,2.16,12.86,0,0,6.76-11.82,6.28-13.07,0,0,.79,8.87-1.55,13.44,0,0,9.08-10.22,8.85-12.09,0,0,2.15,4.57-.71,11.06,0,0,7.21-1.4,8-.72,0,0-10.57,5.44-12.44,9.36,0,0,7.16-3.64,8.63-3.06,0,0-9.65,7.31-8.8,9.83Z"/><path class="cls-2" d="M469.24,206.51s-3.48-9.88-6.75-11.64a16.73,16.73,0,0,1,9.15,3.37s-3-6.6-5.13-7.62c0,0,8.48,2.6,11.07,6.89,0,0-4.38-12.89-5.64-13.36,0,0,7.17,5.28,9,10.07,0,0-1.64-13.58-3.2-14.64,0,0,4.85,1.41,7.82,7.85,0,0,3.73-6.33,4.77-6.48,0,0-2.92,11.52-1.23,15.52,0,0,2-7.77,3.42-8.49,0,0-.9,12.07,1.55,13.1Z"/><path class="cls-1" d="M244.73,718.46s1.74-10.32-.27-13.44a16.64,16.64,0,0,1,6.37,7.36s.56-7.23-.8-9.15c0,0,6.17,6.39,6.35,11.4,0,0,2.41-13.4,1.54-14.42,0,0,3.72,8.09,3,13.18,0,0,5.13-12.68,4.28-14.36,0,0,3.56,3.59,3,10.66,0,0,6.33-3.74,7.31-3.36,0,0-8.14,8.66-8.59,13,0,0,5.53-5.84,7.11-5.78,0,0-6.64,10.12-5,12.21Z"/><path class="cls-1" d="M545.12,14.13s2.44-8.4,1.08-11.19a14,14,0,0,1,4.57,6.74S551.94,3.73,551,2c0,0,4.49,5.89,4.16,10.07,0,0,3.3-10.89,2.67-11.82,0,0,2.31,7.08,1.25,11.24,0,0,5.49-10,4.95-11.5,0,0,2.6,3.32,1.48,9.14,0,0,5.62-2.49,6.4-2.08,0,0-7.6,6.4-8.39,9.94,0,0,5.15-4.3,6.46-4.1,0,0-6.5,7.75-5.33,9.65Z"/><path class="cls-2" d="M119.65,737s2-8.85,10.9-7.83c0,0-8.85-8.67-14.64-.08l-1.7-17.62s-2.39,15.66-4.43,16.68Z"/><path class="cls-2" d="M182,822.16s1.16-13.88.41-15.2a22,22,0,0,1,2.75,6.28,27.79,27.79,0,0,0,.22-5.56l2.27,1.37s1.12-10.14,0-11.8a34.54,34.54,0,0,1,3.27,15.44l2.11,3.93s2.39-7.64.16-8.91c0,0,3.6.87,3.85,3.7,0,0,5.15-13.23,8.23-11.35,0,0-4.48,9.09-2.63,10.84l6.44-5.92s-1.94,3.59-1.45,4.61,8-7.66,8-7.66-4.55,11.59-5.55,11.59c0,0,5.41-1.94,5.8-.79,0,0-9.78,5.35-9.53,15.34Z"/><path class="cls-2" d="M270.28,927.65s7.65-17.93,7-20.26a4.28,4.28,0,0,1,1.53,4.5A12.81,12.81,0,0,1,287.2,907s-5,7.92-4.25,8.65c0,0,6.37-3.73,7.88-2.84,0,0-6.75,5.64-7.78,13.17a11.57,11.57,0,0,1,8.76-5.13s-5.63,5.42-5.88,7.63c0,0,5.71-4.19,11.65-2,0,0-10.64,3.31-12,8Z"/><path class="cls-2" d="M544.48,172.32S535.56,155,533.36,154a4.27,4.27,0,0,1,4.44,1.69,12.8,12.8,0,0,1,1.62-9.55s2.92,8.88,4,8.8c0,0,1.19-7.29,2.84-7.88,0,0,0,8.79,5.16,14.39a11.6,11.6,0,0,1,1.65-10s.58,7.8,2.12,9.4c0,0,.42-7.07,5.88-10.26,0,0-4.25,10.3-1.51,14.39Z"/></g></g></svg>