<svg xmlns="http://www.w3.org/2000/svg" viewBox="0 0 206.56 226.43"><defs><style>.cls-1{fill:#ffe570;}.cls-2{fill:#dcb64c;}.cls-3{fill:#fff28f;}.cls-4{fill:#40c768;}</style></defs><title>qvevri</title><g id="Layer_2" data-name="Layer 2"><g id="qvevri-ები"><g id="qvevri_3" data-name="qvevri 3"><path class="cls-1" d="M10.81,158.13s-3.23,3.23-1.29,9,2.1,28.74,59.74,31,33.1-39.56,18.89-56.35-41.82-27.61-57.64-14.37c0,0-1.94-.67-6.14,9.93C19.71,149.16,10.81,158.13,10.81,158.13Z"/><path class="cls-2" d="M20.34,129.71s10.49-5.57,11.54,0S31.72,150.06,19.13,159s-9.21,1.93-9.93.8-4.85-1.93-4.69-4.36S7.66,137.06,20.34,129.71Z"/><path class="cls-3" d="M29.87,127.29c-2-6-6.91-4-10.3-1.69a22.89,22.89,0,0,0-5,4.7c-4.44,5.52-17.19,22.34-14.12,29,3.72,8.08,14.05.32,17.68-3.07S33.09,136.81,29.87,127.29Zm-7.11,5.48c-.89,5.09-8.24,21.65-17.28,22.86,0,0,2.67-15.1,13.48-24.31C19,131.32,23.64,127.69,22.76,132.77Z"/></g><g id="Layer_97" data-name="Layer 97"><path class="cls-4" d="M2.42,175.31a42.41,42.41,0,0,1,24.36,9.82,39.14,39.14,0,0,0,17,8.25c5,1,10,.92,12.16-2.54a1.62,1.62,0,0,0,.21-.51c.35-1.45,1.63-8-3.13-9.27,0,0,7,1.89,8.37,5.72.9,2.6,2.6-2,3-5.74a1.62,1.62,0,0,1,2.83-.88,13.14,13.14,0,0,1,2,3.05,1.63,1.63,0,0,0,3,0,24.17,24.17,0,0,0,2-7.91c0-4.26,2,1.74.71,9.33a1.62,1.62,0,0,0,2.22,1.78l.71-.29a1.62,1.62,0,0,1,1.52,2.83c-1.51,1-2.61,2.35-2.61,4,0,5.11,18.13-7.15,25-1.79a27.18,27.18,0,0,0,12.89,5.17,1.62,1.62,0,0,1,1.2,2.43c-5.48,9.33-29.48,43.61-74.34,19C-2,193.79-.64,180.06.85,176.34A1.61,1.61,0,0,1,2.42,175.31Z"/></g><g id="qvevri_2" data-name="qvevri 2"><path class="cls-1" d="M127.92,134.76s-2.55,2.55-1,7.15,1.66,22.72,47.23,24.51,26.17-31.28,14.94-44.55S156,100,143.5,110.51c0,0-1.54-.53-4.86,7.85A55.31,55.31,0,0,1,127.92,134.76Z"/><path class="cls-2" d="M135.45,112.29s8.3-4.4,9.13,0-.13,16.09-10.08,23.17-7.28,1.53-7.86.64-3.82-1.53-3.7-3.45S125.43,118.1,135.45,112.29Z"/><path class="cls-3" d="M143,110.37c-1.6-4.7-5.46-3.15-8.14-1.33a18.25,18.25,0,0,0-3.94,3.71c-3.51,4.37-13.59,17.67-11.16,23,2.94,6.39,11.11.26,14-2.42S145.54,117.9,143,110.37Zm-5.62,4.34c-.7,4-6.51,17.11-13.66,18.07,0,0,2.11-11.94,10.66-19.22C134.37,113.56,138.07,110.69,137.37,114.71Z"/></g><g id="_2_grass_qvevri" data-name="2 grass qvevri"><path class="cls-4" d="M124.35,149.19s23.49,10.76,23.49,8.19-3.58-10.24,0-8.19-1.28-7.66,2.55-4.09a30.13,30.13,0,0,1,6.13,9.18s1.78-15.28,0-15,6.12-.52,3.32,13.27c0,0,7.66-4.34,11-2.3,0,0-7.66,1.27-6.13,5.61,0,0,13.78-4,23,2.19s18.89-.63,18.89-.63-2.81,31.64-41.11,23.21S122.05,165.53,124.35,149.19Z"/></g><g id="qvevri_1" data-name="qvevri 1"><path class="cls-1" d="M11.58,44.42s-2.25-5.15,3.62-8.34S34.6,8,40.73,4.42s22.6-7.79,41.62,1,32.93,28.85,28.72,56c0,0-16.34,28-59.23,18.26C51.84,79.74,15,73.44,11.58,44.42Z"/><path class="cls-2" d="M45.93,1.48s-41.86,1.19-34.29,39c0,0,14.05,5.45,26.13-6.81S53.76,5.31,45.93,1.48Z"/><path class="cls-3" d="M43.71,3.27C42,1.06,40.33.33,37.54.08,24.34-1.09,13.86,10.9,11.13,14.64,7,20.32,2.37,39.17,15.91,39.21c12.69,0,20.21-4.32,27.63-18.64C48,12,46,6.26,43.71,3.27ZM22.36,31.1c-11.49,2.75-9.06-10-5.74-14.29.93-1.21,1.83-2.25,2.63-3.12a20.21,20.21,0,0,1,9.4-5.84c3.14-.86,6.73-1,8.52,1.87C40.74,15.47,33.85,28.36,22.36,31.1Z"/></g><g id="_1_grass_qvevri" data-name="1 grass qvevri"><path class="cls-4" d="M10.47,56.51s30.64,7.66,32.69,8.68c0,0,1.53-1.54-1.54-4.34,0,0,5.62.93,6.64,3.14,0,0,.17-4.25-1.62-6.63s4.52,3.06,5.37,4.93c0,0,3.83-8.93,3.15-10.12,0,0,1.18,6.89.08,10.55,0,0,8.17-5,12.09-2,0,0-11.75,2-9.2,6.55,0,0,18.05-.59,30.3-6.55,0,0-2.72-7.32,3.83-2.81,0,0-5.27-4.17-1.36-5.78S96,55.48,96,55.48s-3.75-10.8,4.76-10.12,4.85,11.06,2.56,11.57c0,0,4-1.62,2.78,1.79,0,0,4.19-.17,1.9,2.38,0,0,7.74-1.53,14.55.17S136.69,86.46,96.69,97.7,9,79.65,2.22,76.08,6,55.39,10.47,56.51Z"/></g></g></g></svg>