<svg xmlns="http://www.w3.org/2000/svg" viewBox="0 0 422.94 481.26"><defs><style>.cls-1{fill:#d0c9c9;}.cls-2{fill:#fff;}</style></defs><title>stones</title><g id="Layer_2" data-name="Layer 2"><g id="stones"><g id="stone_9" data-name="stone 9"><path class="cls-1" d="M51.34,7A33.77,33.77,0,0,1,66,4.63c6.5.33,16.53.68,18.1,5.93a6,6,0,0,1,0,1.64A23.49,23.49,0,0,1,84,16.56c-.89,3.55-5.26,4-10.86,3.85C66,20.19,45,17.83,44.5,13.07a10.71,10.71,0,0,1,0-1.14,16.12,16.12,0,0,1,0-3.08C44.86,7.11,49.48,7.78,51.34,7Z"/><path class="cls-2" d="M51.34,2.43A33.77,33.77,0,0,1,66,.05c6.5.33,16,1.72,17.56,7,2.42,8.11-2.88,9-10.44,8.81S42.32,12.94,44.66,7.57C45.63,5.32,48.42,3.64,51.34,2.43Z"/></g><g id="stone_8" data-name="stone 8"><path class="cls-1" d="M22.86,38c-4.7,2.21-10.1,4.44-11.41,9.47a15.51,15.51,0,0,0,.24,7.24c.82,2.58,3.81,4.38,11.08,3.81,20.65-1.61,31.08-3.66,33.34-7.9,1.72-3.24,4.38-4.57,3.88-6.26-.16-.53.61-4.12,0-4.83C57.51,36.39,38,31,22.86,38Z"/><path class="cls-2" d="M22.86,33A20.61,20.61,0,0,0,12.37,43.8c-1.95,4.87-1.86,10.66,10.4,9.7,20.65-1.62,31.08-3.66,33.34-7.91s6.13-5.21,2.36-8C55.22,35.16,38,25.91,22.86,33Z"/></g><g id="stone_7" data-name="stone 7"><path class="cls-1" d="M26.94,85.09a43,43,0,0,1,21.48-5c10.75.26,29.07-.74,32.37,7.46a25.49,25.49,0,0,1-.06,4.53c-.56,13-33.09,12.16-33.09,12.16S19.91,102.36,20.08,93c0-.93,0-4.1,0-5.35,0-1.63,2.41.38,3.39-.37A28,28,0,0,1,26.94,85.09Z"/><path class="cls-2" d="M26.94,79.6a42.88,42.88,0,0,1,21.48-5c11.51.27,31.08,2.19,32.31,12,1.75,13.92-33.09,12.16-33.09,12.16S14.13,96.48,21,84.45a9.36,9.36,0,0,1,2.47-2.7A27,27,0,0,1,26.94,79.6Z"/></g><g id="stone_6" data-name="stone 6"><path class="cls-1" d="M17,139.76C10.19,143,2.37,146.19.47,153.48A22.44,22.44,0,0,0,.81,164c1.19,3.74,5.53,6.36,16.07,5.53,29.93-2.34,45.06-5.3,48.33-11.46,2.5-4.69,6.35-6.62,5.63-9.07-.23-.76.88-6,.06-7C67.24,137.37,38.91,129.51,17,139.76Z"/><path class="cls-2" d="M17,132.43A29.85,29.85,0,0,0,1.8,148.12c-2.82,7-2.69,15.44,15.08,14,29.93-2.33,45.06-5.3,48.33-11.46s8.89-7.56,3.43-11.61C63.92,135.59,38.91,122.18,17,132.43Z"/></g><g id="stone_5" data-name="stone 5"><path class="cls-1" d="M68.52,197.62a67.67,67.67,0,0,1,29.3-4.77c13,.66,33.06,1.36,36.19,11.85a11.67,11.67,0,0,1,.12,3.29c0,2.87.13,6.84-.34,8.71-1.79,7.11-10.52,8.05-21.73,7.71-14.23-.44-56.21-5.16-57.22-14.68a19.09,19.09,0,0,1,0-2.28c.1-2.16-.41-3.51.09-6.17C55.56,197.81,64.8,199.15,68.52,197.62Z"/><path class="cls-2" d="M68.52,188.46a67.67,67.67,0,0,1,29.3-4.77c13,.66,32,3.45,35.13,13.94,4.83,16.21-5.77,18.08-20.89,17.62s-61.59-5.77-56.91-16.53C57.1,194.24,62.68,190.87,68.52,188.46Z"/></g><g id="stone_4" data-name="stone 4"><path class="cls-1" d="M102,265.18a120.23,120.23,0,0,0,12.24-4.35c13.48-5.77,46.67-17.48,63.57-1.5,6.38,6,12.93,6.2,13.3,9.85.34,3.4.35,8.8-1.26,10.88-2.34,3-7.74,5.84-14.85,10.95,0,0-45.37,18.36-73,10.18C90.31,297.7,82.19,292,81.59,285.53c-.32-3.36-1-9.29,0-12.3C83.21,268.18,92.22,268.16,102,265.18Z"/><path class="cls-2" d="M102,256a120.23,120.23,0,0,0,12.24-4.35c13.48-5.77,46.67-17.48,63.57-1.5,21.51,20.34,14.26,19.4-2.81,31.68,0,0-45.37,18.36-73,10.18C76.2,284.35,72.53,265,102,256Z"/></g><g id="stone_3" data-name="stone 3"><path class="cls-1" d="M234.82,300.66s-38.83,14-45.37,22.92c-2.62,3.55-5.48,2.72-6.33,6.82-.4,2-.12,9.1.48,10.86,1.27,3.71,5.19,6.67,13.56,7.81,0,0,17.08-.23,26.66,4.91S290,357,290,357s34.76-6.53,35.48-27.87c.05-1.55-.12-5.84-.17-7.36-.6-17.88-22.91-20.14-28.53-19.49-6.08.7-19.18-2.34-26.19-4.44S237.39,296.69,234.82,300.66Z"/><path class="cls-2" d="M234.82,292S196,306,189.45,314.89s-12.87,22.68,7.71,25.49c0,0,17.08-.23,26.66,4.91s66.19,3,66.19,3,36.95-7.95,35.31-29.23-22.45-26.19-28.53-25.49-19.18-2.34-26.19-4.45S237.39,288,234.82,292Z"/></g><g id="stone_2" data-name="stone 2"><path class="cls-1" d="M148,384a63.71,63.71,0,0,1,31.9-7.44c16,.39,43.17-1.11,48.07,11.07.35.86-.05,5.76-.1,6.73-.82,19.23-49.13,18.05-49.13,18.05s-41.18-2.77-40.92-16.71c0-1.38,0-6.08,0-7.94,0-2.43,3.6.56,5.05-.55A40.77,40.77,0,0,1,148,384Z"/><path class="cls-2" d="M148,375.85a63.71,63.71,0,0,1,31.9-7.44c17.08.41,46.14,3.26,48,17.8,2.61,20.66-49.13,18.05-49.13,18.05s-49.76-3.35-39.54-21.2a13.9,13.9,0,0,1,3.67-4A40.87,40.87,0,0,1,148,375.85Z"/></g><g id="stone_1" data-name="stone 1"><path class="cls-1" d="M264.27,419.55s24-11.85,50.83-12.16,45.52-4.05,50.82-2.49,7.48-2.19,29.62,8.73c15.58,7.67,23.91,7.34,26.74,12.24,1.2,2.06.39,10.51.39,12.08,0,5.3-2.32,11.59-5.3,16.52-3.23,5.34-25.88,20.58-35.55,21.52s-81.07,8.42-91.05,3.74-19.55-6.29-27.75-10.29c-10-4.91-21.75-26.55-17.72-38.73C248.85,419.94,251.8,427.35,264.27,419.55Z"/><path class="cls-2" d="M264.27,408.56s24-11.85,50.83-12.16,45.52-4.06,50.82-2.5,7.48-2.18,29.62,8.73,27.13,19,27.13,24.33-5.3,10.29-5.3,16.52S391.49,464.06,381.82,465s-81.07,8.42-91.05,3.74S272.06,457.83,263,458.45s-22.45-21.2-16.52-30.87S251.8,416.35,264.27,408.56Z"/></g></g></g></svg>