<svg xmlns="http://www.w3.org/2000/svg" viewBox="0 0 349.56 462.89"><defs><style>.cls-1{fill:#40c768;}.cls-2{fill:#5ae182;}.cls-3{fill:#de8bc4;}.cls-4{fill:#f9bee7;}.cls-5{fill:#fffbf5;}</style></defs><title>skup-skup</title><g id="tree_shado" data-name="tree shado"><path class="cls-1" d="M825.68,1312.15s45.7-34,90.38,0-57.19,51.83-82.46,39.32C833.6,1351.47,790.45,1337.68,825.68,1312.15Z" transform="translate(-672.62 -895.57)"/><path class="cls-1" d="M890.17,1310s6.57-18.36,5.79-20.64a4.28,4.28,0,0,1,1.79,4.4,12.82,12.82,0,0,1,8.09-5.35s-4.49,8.21-3.73,8.9c0,0,6.14-4.11,7.7-3.31,0,0-6.4,6-7,13.61a11.55,11.55,0,0,1,8.44-5.64s-5.3,5.74-5.41,8c0,0,5.45-4.52,11.51-2.71,0,0-10.43,3.93-11.55,8.73Z" transform="translate(-672.62 -895.57)"/><path class="cls-1" d="M842,1307.52s-6.62-6.23-1.27-13.35c0,0-12,3.26-7.46,12.59l-16.07-7.42s12.32,10,12.17,12.24Z" transform="translate(-672.62 -895.57)"/><path class="cls-2" d="M860.57,1358.47s-3.19-8.3-10.21-9.9c0,0,10.53,1,13.41,5l-5.43-11.39s6.7,2.87,8,8.17c0,0,7.34-7.8,12.13-5.56,0,0-14.05,10.85-11.49,13.73Z" transform="translate(-672.62 -895.57)"/></g><g id="tree"><path class="cls-3" d="M845.18,913.3s11.57-22.81,22.12-16.68,10.9,7.83,14,16.68c0,0,16.68-12.94,23.49,2.38a20.81,20.81,0,0,1,2.13,15.7s10.47-11.74,17.36-7.53,5.87,18,13.28,19.15,28.08,6.64,6.89,26.81c0,0,14.17,18.13-16.34,21.57,0,0,4.72,1.28,2,5.49,0,0,15.45-10.85,21.19,3.07,0,0,17.62-8.81,19.41,1.53,0,0,2.81,6.13,0,7.91,0,0,23.1-10.59,28,9.45,0,0,2.42,8.68-4.09,13.4,0,0,20.43-3.44,24.26,12s-9.2,15.07-9.2,15.07,24.64,9.19,4.86,27.7a8.9,8.9,0,0,1-5.11,2.43s3.19,22.21-17.75,6.38c0,0,1.41,6.38-3.83,7.28,0,0,13.54.63,8.56,13.53,0,0-2.3,7.66-5.24,8.3,0,0,15.45,4.46,11.24,15.44s-11.75,6.13-11.75,6.13,13.41,12.13,3.45,18.51-13.15,3.57-13.15,3.57,8.94,8.67,4.21,12.89-9.32,7.28-21.44-2.29c0,0,2.68,15.32-2.17,19.92s-17.62,5.1-24.39-10.73c0,0-1.53,14.94-15.44,9.32,0,0,4.72,20.43-8.17,20.94s-17-15.83-17-15.83-10.34,19.66-20.68-1.41c0,0-21.19,9.45-28.73-14.29,0,0-15.44,19.65-32.68,12,0,0-4.72,22-19.53,26.8s-14.68-6.76-28.47,0-27.57,6.51-26-9.06c0,0-26.81,11.62-29.23-9.45,0,0,4-14.17,13.27-15.83,0,0-20.68-3.83-3.57-22.85l7-6.51s-27.7,6-25.4-15.45c0,0-28.09,14.94-29.88-5.1,0,0,.9-12.13,8.94-16.34,0,0-11.49-4.85-3.83-15.45s10.72-10.21,10.72-10.21-17.74-21.7,10.85-16.47c0,0-16.59-17,3.71-23.74,0,0-19.66-11.11-9.32-31.54,0,0,5.36-5.87,10.59-7.4,0,0-8.93-2-7.91-20.43s31.53-1,31.53-1-11.36-11.61-2.94-18.51,25.15-.25,25.15-.25-8.17-20.81,11-17c0,0-17.87-26.17-1.53-32.3,0,0,10.72-4.85,20.42,5.23,0,0-6.76-16.34,10.22-17.1,0,0,8.81-.13,11.36,6.89,0,0-.38-15.7,15.57-8.93C817.13,917.09,822,883.47,845.18,913.3Z" transform="translate(-672.62 -895.57)"/><path class="cls-4" d="M784.24,1047.17s-5-3.4-5,1.45,13.11,11.57,13.87,5.78c.7-5.31-.38-11.86-5.17-9.3a4.56,4.56,0,0,0-1.69,1.66A1.37,1.37,0,0,1,784.24,1047.17Z" transform="translate(-672.62 -895.57)"/><path class="cls-4" d="M781.13,1103.85s1.92-2.93,3.71-1,5,.13,6.12-1.28,7.28-2.81,6,7.54-11.23,9.44-14.68,1.91C782.28,1111,779.41,1105.38,781.13,1103.85Z" transform="translate(-672.62 -895.57)"/><path class="cls-4" d="M758.54,1128.11s-5.87-5.62-8.43-1.28,6.9,12,10.85,10.09S767,1122.49,758.54,1128.11Z" transform="translate(-672.62 -895.57)"/><path class="cls-4" d="M798.75,1146.62s5.36,5.23,11.11-1.41,11.49,7.28,3.06,13.15-16.47,4.5-19.66-7.45S798.75,1146.62,798.75,1146.62Z" transform="translate(-672.62 -895.57)"/><path class="cls-4" d="M916.71,1106.4a14.38,14.38,0,0,0,11.62.9c6.38-2.3,5.87,14.81-1.66,14.93s-10-1.91-10-1.91S903.69,1105.7,916.71,1106.4Z" transform="translate(-672.62 -895.57)"/><path class="cls-4" d="M891.56,1077.68a6.21,6.21,0,0,0,7.53,0c3.83-2.94,6.64,3.06,2.94,8.3s-8.68,2.94-11.75-1.41S889.28,1076.6,891.56,1077.68Z" transform="translate(-672.62 -895.57)"/><path class="cls-4" d="M947.09,1061.09s2.3,4.08,8.17,0,7.66,3.7,4,9.57-8.94,7.53-14.17,3.32S935,1051.51,947.09,1061.09Z" transform="translate(-672.62 -895.57)"/><path class="cls-4" d="M882.62,1034.4s2.81,3.45,7.66-.89,7.92,1.28,5.24,7.79-6.64,12.51-14.43,5.1S874.84,1030.45,882.62,1034.4Z" transform="translate(-672.62 -895.57)"/><path class="cls-4" d="M925.39,1146.11s1.05,5.61,7.36,1.91,4.93,4.85,0,7.66-12.34,2.81-13.49-4.79S925.13,1141.51,925.39,1146.11Z" transform="translate(-672.62 -895.57)"/><path class="cls-5" d="M862.33,1121.72s-1.66-28.43,5.36-32.72,2.34,5.55,1,11c-.91,3.76,0,27.19,2,38.3s1.2,29.62,20.09,13.66,6.77,4-.63,11.36-12.52,5-12.39,15.45,3.7,54.51,6.77,66.89,6,53.11,4.72,58.21-7.66,36.77-24.13,9.71c0,0,2.94-49.54.64-85.41s-1.36-56.55-3.62-65.36-4.29-23.35-18.72-40.59-22.34-27.84-18.13-27.32,21.32,19.39,21.32,19.39-11.36-37-9.32-67.78,6.13-19.66,7.15-8.42S849.69,1095.81,862.33,1121.72Z" transform="translate(-672.62 -895.57)"/></g></svg>