<svg xmlns="http://www.w3.org/2000/svg" viewBox="0 0 340.53 400"><defs><style>.cls-1{isolation:isolate;}.cls-2{fill:#c0d5dd;mix-blend-mode:multiply;}.cls-3{fill:#fff;}.cls-4{font-size:28px;fill:#ce2eac;font-family:Datebashvili;}.cls-5{font-size:92px;fill:#599ac7;font-family:Anton-Regular, Anton;letter-spacing:0em;}.cls-6{fill:#ffccd3;}</style></defs><title>N3 card</title><g class="cls-1"><g id="Layer_2" data-name="Layer 2"><g id="_3" data-name="3"><path class="cls-2" d="M112.14,96.61,264.26,69.39a31.81,31.81,0,0,1,39.62,24.06l35.95,169.74a31.81,31.81,0,0,1-29.59,38.36l-181.8,8.69a31.81,31.81,0,0,1-33.29-30.3L88.88,128.71A31.8,31.8,0,0,1,112.14,96.61Z"/><path class="cls-3" d="M59.61,112.21l199.2-25.14c16.8-3.38,33.09,7.87,36.36,25.12l35.16,185.09c3.73,19.59-10.85,37.83-30.3,37.89l-234,.74c-17.11.06-31-14.15-31.07-31.73l-.31-160.7C34.57,128.25,45.05,115.14,59.61,112.21Z"/></g><g id="ვისწავლოთ_წერა" data-name="ვისწავლოთ წერა"><text class="cls-4" transform="translate(58.41 212.52)">ვისწავლოთ<tspan x="65.71" y="40">წერა</tspan></text></g><g id="number_3" data-name="number 3"><text class="cls-5" transform="translate(60.42 322.65)">3</text></g><g id="sheep"><path id="head" class="cls-6" d="M65.87,114.37s1,65.71,101.44,66.39S272.5,111.31,272.5,111.31,158.46,53.44,65.87,114.37Z"/><g id="eye_left" data-name="eye left"><path d="M128.38,149.39c1,7.34-2,7.4-4.73,7.88-2.57.45-4.61-3.1-5.19-7.41-.85-6.38,1.49-8.07,4.09-8.34C125.53,141.21,127.4,142.12,128.38,149.39Z"/><path class="cls-3" d="M123.14,145.63a1.48,1.48,0,0,1,1.79-1.87c.58.17,1.14.73,1.3,2.19.34,3.23-2,2-2.73.59A6.54,6.54,0,0,1,123.14,145.63Z"/></g><g id="eye_right" data-name="eye right"><path d="M193.65,152.52c-1,7.34,2,7.39,4.73,7.87,2.57.45,4.62-3.1,5.19-7.41.85-6.38-1.49-8.07-4.09-8.34C196.51,144.33,194.63,145.24,193.65,152.52Z"/><path class="cls-3" d="M198.89,148.75a1.49,1.49,0,0,0-1.79-1.87c-.58.17-1.14.73-1.3,2.19-.34,3.23,2,2,2.73.59A6.54,6.54,0,0,0,198.89,148.75Z"/></g><g id="nose"><path d="M155.59,158.27s-8.17-3.07-3.74-6.52a7.41,7.41,0,0,1,10.31.93c.6.91,2.62,4.28-4.37,5.59,0,0,.45,10.35,5.41,2.84a.17.17,0,0,1,.31.13c-.49,1.82-1.89,5.41-5,3.83A5,5,0,0,1,156,162,10.54,10.54,0,0,1,155.59,158.27Z"/></g><g id="ear_right" data-name="ear right"><path d="M260.34,79.63s30.73,7,49.74,51.84-2,58.07-22.17,38.86C266.43,149.91,249.73,120.4,260.34,79.63Z"/></g><g id="ear_left" data-name="ear left"><path d="M69.42,93.4s-28,6.85-45.33,51,3.05,54.35,21.4,35S79.09,133.5,69.42,93.4Z"/></g><path id="hair" class="cls-3" d="M87.78,28.88c3.29-7.81,14.64-27.83,40.07-11.62a2.34,2.34,0,0,0,3.12-.57c4.14-5.88,18.83-22.93,41.15-7.43a4.53,4.53,0,0,0,5,.11c9.82-6.33,46.83-25.48,78.46,20.5A3.8,3.8,0,0,0,259,31.49c7.13-.59,29.85-.4,40.85,23.58,10.86,23.66-4.15,37.37-9.72,41.43a2.16,2.16,0,0,0-.52,3.07c3.85,5.2,13.21,20.63-2.65,30.66a31,31,0,0,1-21.63,4.17c-5.14-.87-10.68-2.94-13.17-7.63a1.58,1.58,0,0,0-2.31-.45c-5.49,4.15-24.63,16-44.63-2a3.14,3.14,0,0,0-4.23,0c-5.1,4.86-19.75,15.58-41.62,5a3.58,3.58,0,0,0-4,.62c-4,3.89-15.73,11.9-39.56,3.75a4.45,4.45,0,0,0-3,0c-5.89,2.24-28.53,9.34-40.38-8.41-.74-1.1-2.53-2-3.47-1.06-7.93,8.05-52.77,20.13-42.21-24.6a1.74,1.74,0,0,0-1.24-2.06c-9.17-1-21.15-15.15-13.44-32,3.12-6.85,9.46-11.92,17-14.32a34.22,34.22,0,0,1,11.71-1.86,2.55,2.55,0,0,0,2.72-2.3c.55-9.06,5-37.64,40.48-17.07A2.71,2.71,0,0,0,87.78,28.88Z"/></g></g></g></svg>