<svg xmlns="http://www.w3.org/2000/svg" viewBox="0 0 338.37 410"><defs><style>.cls-1{isolation:isolate;}.cls-2{fill:#c0d5dd;mix-blend-mode:multiply;}.cls-3{fill:#fff;}.cls-4{font-size:92px;fill:#599ac7;font-family:Anton-Regular, Anton;letter-spacing:0em;}.cls-5{fill:#f9bcc3;}.cls-6{font-size:28px;fill:#ce2eac;font-family:Datebashvili;}</style></defs><title>N1 card</title><g class="cls-1"><g id="Layer_2" data-name="Layer 2"><g id="_1" data-name="1"><path class="cls-2" d="M334.86,329.35l-40.39-211c-2.32-9.58-10.52-16.18-19.76-15.89l-140.19,3.19c-11.05.34-19.71,10.3-19.24,22.14L124.71,342c.46,11.69,9.67,20.78,20.59,20.32l171.14-6.35C329.09,355.38,338,342.47,334.86,329.35Z"/><path class="cls-3" d="M328.45,376.73l-46.09-248c-2.17-9.41-30.37-16-39.41-16.15L77.67,110.85c-11-.12-20,9.35-20,21.13L56.21,381.34C56.15,393.11,65,402.69,76,402.71l233.15.36C322.05,403.09,331.53,390.14,328.45,376.73Z"/></g><g id="number"><text class="cls-4" transform="translate(73.46 390.3)">1</text></g><g id="rabbit"><g id="belly"><path class="cls-5" d="M262.85,403s-33.53-115.39.95-148.75c0,0,16.41-16.17,40.94-5.08L329,378.34s1.23,6.1-2.74,14.24c-2.45,5-6.25,10.51-18.84,10.49Z"/><g id="dots"><ellipse class="cls-3" cx="311.19" cy="382.67" rx="2.35" ry="4.17" transform="translate(-92.92 99.88) rotate(-15.9)"/><ellipse class="cls-3" cx="294.91" cy="364.07" rx="2.73" ry="5.41" transform="translate(-88.45 94.71) rotate(-15.9)"/><ellipse class="cls-3" cx="280.55" cy="341.67" rx="2.73" ry="5.41" transform="translate(-82.86 89.92) rotate(-15.9)"/><ellipse class="cls-3" cx="308.91" cy="349.53" rx="2.25" ry="4.47" transform="translate(-83.93 97.99) rotate(-15.9)"/><ellipse class="cls-3" cx="280.49" cy="380.08" rx="2.28" ry="4.52" transform="translate(-93.39 91.37) rotate(-15.9)"/><ellipse class="cls-3" cx="291.07" cy="318.26" rx="2.28" ry="4.52" transform="translate(-76.04 91.9) rotate(-15.9)"/></g></g><g id="head"><ellipse class="cls-3" cx="239.13" cy="168.63" rx="61.96" ry="56.34" transform="translate(-43.94 94.54) rotate(-20.52)"/></g><g id="left_ear" data-name="left ear"><path class="cls-3" d="M181.64,159.88a12.34,12.34,0,0,0,10.14-15.75c-8-27.19-37-113.52-83-108.35-54.64,6.12,3.65,78.42,18.13,90.89C140.28,138.22,163.16,162.24,181.64,159.88Z"/><g id="Layer_10" data-name="Layer 10"><path class="cls-5" d="M126.31,66.56a24.34,24.34,0,0,0-10.18-4.7c-6.95-1.34-15.93.11-10.46,19.36,8.43,29.62,59.49,70.47,70,72.51s9.7-7.4,1.53-22.72C169.3,116.27,153.64,87.58,126.31,66.56Z"/><ellipse class="cls-3" cx="169.18" cy="138.63" rx="1.39" ry="2.41" transform="translate(-49.04 123.77) rotate(-35.44)"/><ellipse class="cls-3" cx="156.59" cy="131.74" rx="1.62" ry="3.13" transform="translate(-47.38 115.19) rotate(-35.44)"/><ellipse class="cls-3" cx="144.34" cy="122.37" rx="1.62" ry="3.13" transform="translate(-44.21 106.35) rotate(-35.44)"/><ellipse class="cls-3" cx="161.62" cy="120.96" rx="1.34" ry="2.58" transform="translate(-40.19 116.11) rotate(-35.44)"/><ellipse class="cls-3" cx="154.58" cy="104.65" rx="1.34" ry="2.58" transform="translate(-32.04 109) rotate(-35.44)"/><ellipse class="cls-3" cx="137.29" cy="106.07" rx="1.62" ry="3.13" transform="translate(-36.07 99.25) rotate(-35.44)"/><ellipse class="cls-3" cx="149.54" cy="115.43" rx="1.62" ry="3.13" transform="translate(-39.23 108.08) rotate(-35.44)"/><ellipse class="cls-3" cx="162.14" cy="122.33" rx="1.39" ry="2.41" transform="translate(-40.89 116.66) rotate(-35.44)"/></g></g><g id="right_ear" data-name="right ear"><g id="Layer_12" data-name="Layer 12"><polygon class="cls-5" points="237.42 34.24 195.8 58.76 219.45 130.24 232.06 123.86 237.42 34.24"/><ellipse class="cls-3" cx="227.36" cy="89.15" rx="1.34" ry="2.58" transform="matrix(1, -0.07, 0.07, 1, -6.02, 17.22)"/><ellipse class="cls-3" cx="211.83" cy="81.42" rx="1.62" ry="3.13" transform="translate(-5.49 16.04) rotate(-4.28)"/><ellipse class="cls-3" cx="217.47" cy="95.78" rx="1.62" ry="3.13" transform="translate(-6.54 16.5) rotate(-4.28)"/><ellipse class="cls-3" cx="224.68" cy="108.19" rx="1.39" ry="2.41" transform="translate(-7.45 17.07) rotate(-4.28)"/><ellipse class="cls-3" cx="223.62" cy="73.13" rx="1.39" ry="2.41" transform="translate(-4.83 16.89) rotate(-4.28)"/></g><path class="cls-3" d="M267,11.78c-3.58-10.73-12.4-15.69-32.68-8.17-20.68,7.66-53.42,33.7-51,48.76s4.24,43.15,32.07,77.62c25.23,31.24,27.59-65.89,27.81-84.35a6.13,6.13,0,0,1,2.33-4.75C252.11,35.73,270,20.57,267,11.78ZM234.1,56.71s-4.59,62.3-7.91,66.9-6.73-3.58-6.73-3.58S206.78,80.2,205,72.54s3.06-11.05,3.06-11.05,14-8.1,20.94-12.44S234.1,56.71,234.1,56.71Z"/></g><g id="blush_chick" data-name="blush chick"><path class="cls-5" d="M212,194.22a11.43,11.43,0,0,1,5.69-3.41c3-.81,7.7-1.44,9.72,1.82,1.77,2.86-.59,6.44-2.88,8.94a14,14,0,0,1-8.82,4.62c-3.26.32-6.67-.7-6.26-6.58A10.45,10.45,0,0,1,212,194.22Z"/><path class="cls-5" d="M257.07,166.14a11.43,11.43,0,0,1,5.69-3.41c3-.81,7.7-1.44,9.72,1.82,1.78,2.86-.58,6.44-2.88,8.94a14,14,0,0,1-8.82,4.62c-3.26.32-6.67-.7-6.26-6.58A10.45,10.45,0,0,1,257.07,166.14Z"/></g><g id="right_eye" data-name="right eye"><ellipse cx="251.75" cy="150.19" rx="6.35" ry="8.34" transform="translate(-23.31 48.82) rotate(-10.59)"/><ellipse class="cls-3" cx="254.36" cy="147.63" rx="1.26" ry="2.13" transform="translate(-39.29 163.77) rotate(-33.28)"/></g><g id="left_eye" data-name="left eye"><ellipse cx="206.33" cy="174.99" rx="6.35" ry="8.34" transform="translate(-64.21 175.61) rotate(-40.43)"/><ellipse class="cls-3" cx="202.7" cy="175.4" rx="1.26" ry="2.13" transform="translate(-43.81 70.12) rotate(-17.74)"/></g><g id="nose"><path d="M234.36,175s.83-5.57,4.58-4a5,5,0,0,1,2.74,3,5.87,5.87,0,0,1-.17,4.22,6.35,6.35,0,0,1-4.77,3.52c-2.14.39-5,.23-6.28-2.85a4.86,4.86,0,0,1-.25-3.08C230.57,174.56,231.56,173.15,234.36,175Z"/></g><g id="mouth"><path d="M240.67,185.1c-.06-.13.07-.27.19-.19,1.38.87,4.8,2.64,6.6-1.92,0,0,1.4,5.23-4.47,4a.33.33,0,0,0-.41.33c.09,1.49-.51,6.55-5.4,3C237.18,190.33,244,191.48,240.67,185.1Z"/></g></g><g id="ახალი_ასო" data-name="ახალი ასო"><text class="cls-6" transform="translate(114.68 251.87)">ახალი <tspan x="14.7" y="40">ასო</tspan></text></g></g></g></svg>