<svg xmlns="http://www.w3.org/2000/svg" viewBox="0 0 360 330"><defs><style>.cls-1{isolation:isolate;}.cls-2{fill:#c0d5dd;mix-blend-mode:multiply;}.cls-3{fill:#fff;}.cls-4{fill:#fffffe;}.cls-5{fill:#ec86c5;}.cls-6{fill:#e1cce5;}.cls-7{fill:#0a0a0a;}.cls-8{fill:#ffd655;}.cls-9{font-size:30px;}.cls-10,.cls-9{fill:#ce2eac;font-family:Datebashvili;}.cls-10{font-size:28px;}.cls-11{font-size:92px;fill:#599ac7;font-family:Anton-Regular, Anton;letter-spacing:0em;}</style></defs><title>N2 card</title><g class="cls-1"><g id="Layer_2" data-name="Layer 2"><g id="_2" data-name="2"><path class="cls-2" d="M103.7,76.8V241.36c0,16.49,11.71,29.87,26.16,29.87H333c14.45,0,26.16-13.38,26.16-29.87V101.82c0-15.26-10.07-28.06-23.35-29.7l-203.13-25C117.2,45.21,103.7,59,103.7,76.8Z"/><path class="cls-3" d="M66.67,84.83V279.67c0,16.5,11.72,29.87,26.16,29.87H319.3c14.45,0,26.16-13.37,26.16-29.87V114.45c0-15.18-10-27.94-23.18-29.67L95.81,55.16C80.28,53.13,66.67,67,66.67,84.83Z"/></g><g id="owl"><g id="head"><path class="cls-4" d="M342.79,137.81s6.65-87.24,9.14-107.18,1.11-16.34-4.57-13.3-54.7,34.35-98.46,6.1c0,0-15.79-10-21.51-18.28s-7.66-4.06-7.66-4.06L200.52,85.72S224.71,190.71,342.79,137.81Z"/></g><g id="owl_wing" data-name="owl wing"><path class="cls-5" d="M312.52,122.22q2.22-.15,4.44-.39c6.16-.66,39.26-2.1,47.66,41.76,9.28,48.42,12,145.57-21.14,131.63-31.54-13.28-64-35.2-67.72-108.16-.94-18.08-1.17-35.3,3.79-52.12C283.14,122.72,292.73,123.63,312.52,122.22Z"/><g id="wing_lines" data-name="wing lines"><path class="cls-3" d="M286.09,195.15c1.73,3.39,4.52,7,8.09,8.59,6.68,2.87,11.4-3.83,14.19-8.93l-1.53-.2c1.85,4.48,4.74,9.67,9,12.2,8.6,5.05,14.22-7,16.78-13.13l-1.53.2c2.25,3.66,4.46,8.18,8.73,9.85,7.76,3,12.2-7.95,14.3-13.28.4-1-1.23-1.44-1.62-.44-2.25,5.69-7.38,17-14.69,10.4-2.31-2.07-3.68-4.78-5.27-7.38a.85.85,0,0,0-1.54.2c-2.86,6.86-8.89,18.12-16.82,10.05a30.37,30.37,0,0,1-5.76-9.12.86.86,0,0,0-1.54-.2c-3.26,5.95-8.53,12.06-15,6.25a20.7,20.7,0,0,1-4.42-5.91c-.49-1-1.94-.12-1.45.85Z"/><path class="cls-3" d="M306.54,228.1c1.23,2.7,3.48,5.43,6.29,6.54,6.39,2.5,11.64-4,14.84-8.58l-1.41.18c2.14,2.58,5.27,5.19,8.65,5.81,6.44,1.18,9.28-5.7,10.71-10.72a.9.9,0,0,0-1.73-.48c-1.61,5.63-4.86,12-11.41,8.34a17.89,17.89,0,0,1-5-4.22.91.91,0,0,0-1.41.18c-3.19,4.51-8.81,11.23-14.65,6.58a12.55,12.55,0,0,1-3.38-4.54c-.48-1.05-2-.13-1.55.91Z"/><path class="cls-3" d="M323.63,248.78a11.76,11.76,0,0,0,5.41,5c4.84,1.77,7.53-3.71,8.89-7.38.4-1.08-1.34-1.55-1.74-.47-1.2,3.22-3.61,8.26-7.68,5.56a11.83,11.83,0,0,1-3.32-3.58c-.61-1-2.17-.08-1.56.91Z"/></g></g><g id="Layer_32" data-name="Layer 32"><path class="cls-5" d="M228.23,48l17.25-6.23a2.83,2.83,0,0,0,1-4.69L229.56,20.49a2.31,2.31,0,0,0-3.9,1.33c-.83,6-2.09,16.8-1.53,23.53A3.06,3.06,0,0,0,228.23,48Z"/><path class="cls-5" d="M321.37,45.51l15,10.62a2.83,2.83,0,0,0,4.43-1.84L344.68,31a2.3,2.3,0,0,0-3.31-2.45c-5.44,2.76-15,7.87-20.2,12.16A3.06,3.06,0,0,0,321.37,45.51Z"/></g><g id="left_eye" data-name="left eye"><circle class="cls-6" cx="261.62" cy="67.05" r="14.26"/><g id="Layer_34" data-name="Layer 34"><circle class="cls-7" cx="261.98" cy="65.73" r="9.07"/><ellipse class="cls-3" cx="258.13" cy="64.42" rx="2.7" ry="1.94" transform="translate(102.1 279.91) rotate(-68.1)"/></g></g><g id="right_eye" data-name="right eye"><circle class="cls-6" cx="306.7" cy="70.44" r="14.26"/><circle class="cls-7" cx="306.34" cy="69.12" r="9.07"/><ellipse class="cls-3" cx="310.18" cy="67.81" rx="1.94" ry="2.7" transform="translate(-2.91 120.57) rotate(-21.9)"/></g><g id="nose"><path class="cls-8" d="M278,77.19l2.17,7.32a1.69,1.69,0,0,0,3,.5l4.38-6.1a2.21,2.21,0,0,0-1.42-3.47l-5.68-1A2.17,2.17,0,0,0,278,77.19Z"/></g></g><g id="სიტყვები"><text class="cls-9" transform="translate(451.21 165.31)"> </text><text class="cls-10" transform="translate(77.57 177.6)">სიტყვები</text></g><g id="number_2" data-name="number 2"><text class="cls-11" transform="translate(89.35 296.33)">2</text></g></g></g></svg>