<svg xmlns="http://www.w3.org/2000/svg" viewBox="0 0 351.61 390"><defs><style>.cls-1{isolation:isolate;}.cls-2{fill:#c0d5dd;mix-blend-mode:multiply;}.cls-3{fill:#fff;}.cls-4{font-size:28px;fill:#ce2eac;font-family:Datebashvili;}.cls-5{fill:#fe9e73;}.cls-6{fill:#050505;}.cls-7{font-size:92px;fill:#599ac7;font-family:Anton-Regular, Anton;letter-spacing:0em;}</style></defs><title>N4 card</title><g class="cls-1"><g id="Layer_2" data-name="Layer 2"><g id="_4" data-name="4"><path class="cls-2" d="M136.72,285.87l146.93,3.44c14.54.52,27.73-7.32,32.33-19.23L349.91,92.81c6.6-17.08-6.81-35-27.56-36.9L150.67,42.05c-18.71-1.69-35.19,10.59-36,26.8L105.5,256.56C104.74,272.09,118.72,285.21,136.72,285.87Z"/><path class="cls-3" d="M60.88,324.39l197-.08c14,0,26.5-7.76,30.93-19.25l46-208.57c6.82-17.64-7.72-36-29.25-37l-244-10.18c-18.71-.84-34.39,12-34.32,28.22l1,218.83C28.31,311.87,42.91,324.4,60.88,324.39Z"/></g><g id="წავიკითხოთ_სიტყვები" data-name="წავიკითხოთ სიტყვები"><text class="cls-4" transform="translate(38.62 201.99)">წავიკითხოთ<tspan x="11.17" y="40" xml:space="preserve">        სიტყვები</tspan></text></g><g id="fox"><g id="fox_head" data-name="fox head"><path class="cls-5" d="M37,85.52c-5.68.55-9.71-1.8-9.63-9.54.06-5.06,1.62-11.93,5-22C40.58,29.2,46.29,8.69,47,5.62a7.08,7.08,0,0,1,.31-1c.73-1.92,3.28-7.64,6-2.62s26.19,34.78,34,44.64A9,9,0,0,0,94,50l180.85,7.88A9.07,9.07,0,0,0,281.89,55l29.53-32.07s5.13-5.81,6.73,1.52c1.48,6.81,16,48.16,18,54a7.6,7.6,0,0,0,.42,1,5.81,5.81,0,0,1,.48,1.45c1.12,5.67-4.22,10.6-10.19,9.68-23.79-3.7-93.1-8.77-128.09,49a9,9,0,0,1-8.22,4.3l-24.35-1.28a8.92,8.92,0,0,1-7.16-4.16C150.52,124.45,116,77.89,37,85.52Z"/><g id="Layer_41" data-name="Layer 41"><path class="cls-3" d="M109.14,81.94a.73.73,0,0,1-1.12,0c-1.27-1.68-4.12-6-1.36-7.32C110,73,115.18,75.07,109.14,81.94Z"/><path class="cls-3" d="M131.14,74A.93.93,0,0,1,129.8,74c-1.61-1.91-5.76-7.46-.35-8C135.4,65.34,133.72,71.62,131.14,74Z"/><path class="cls-3" d="M134.71,93.51a.41.41,0,0,1-.75,0c-.83-2-2.61-7.06.1-7.31C137.05,85.93,135.75,91.05,134.71,93.51Z"/><path class="cls-3" d="M148.13,97.59a.47.47,0,0,1-.87-.09c-.47-2.38-1.19-7.17.81-6.84C150.49,91.07,150.06,93.49,148.13,97.59Z"/><path class="cls-3" d="M165.56,112.59a.49.49,0,0,1-.89-.1c-.94-3.22-3.41-12.75.35-12.83C169.32,99.57,169.07,106.44,165.56,112.59Z"/><path class="cls-3" d="M185.7,113.5a1.2,1.2,0,0,1-2-.45c-.75-2.51-2-8.2,2-8.36S187.75,111.15,185.7,113.5Z"/><path class="cls-3" d="M203.6,106.88a.68.68,0,0,1-1.1-.24c-.63-1.8-1.94-6.51,1.73-6.81C208.05,99.52,205.35,105.21,203.6,106.88Z"/><path class="cls-3" d="M214.32,94.67a.67.67,0,0,1-1.14-.3c-.62-2.94-2-11,2.17-10.77C219.91,83.87,217.18,91.71,214.32,94.67Z"/><path class="cls-3" d="M210.49,75.33a.91.91,0,0,1-1.16-.33c-.89-1.36-2.62-4.75.49-6.9C213.5,65.56,213.5,73.7,210.49,75.33Z"/><path class="cls-3" d="M191.35,87.89a1,1,0,0,1-1.68-.32c-.77-3.32-2.23-11.22,1.38-10.67C194.91,77.48,193.65,84.91,191.35,87.89Z"/><path class="cls-3" d="M164.12,78.9a1.65,1.65,0,0,1-2.62-.13c-1.39-2.13-3.25-6,.59-7.45C166.76,69.6,167,75.56,164.12,78.9Z"/><path class="cls-3" d="M234.59,83.84a.87.87,0,0,1-1.5-.38c-.5-2.57-1.1-7.35,1.5-7.07C237.79,76.73,237.78,80.24,234.59,83.84Z"/><path class="cls-3" d="M259.91,78.12a2.74,2.74,0,0,1-2.28,1.68c-.87.09-1.81-.22-1.53-2.13.5-3.38,1.5-5,3.08-3.76C260.32,74.79,260.46,76.73,259.91,78.12Z"/></g><g id="Layer_45" data-name="Layer 45"><path class="cls-3" d="M46.58,58.32,70.1,55.47a3.47,3.47,0,0,0,2.6-5.38L56,25.59a3,3,0,0,0-5.29.54c-2.76,7.06-7.39,19.69-8.59,28A3.87,3.87,0,0,0,46.58,58.32Z"/><path class="cls-3" d="M294.66,62l23.2,4.67a3.57,3.57,0,0,0,4.3-4.26L314.79,34a3,3,0,0,0-5.19-1.14c-5,5.8-13.72,16.29-17.68,23.71A3.76,3.76,0,0,0,294.66,62Z"/></g></g><g id="fox_left_eye" data-name="fox left eye"><ellipse cx="106.29" cy="132.03" rx="5.94" ry="7.72"/><circle class="cls-3" cx="108.52" cy="129" r="2.01"/></g><g id="right_eye" data-name="right eye"><ellipse cx="240.06" cy="140.46" rx="5.94" ry="7.72"/><circle class="cls-3" cx="237.84" cy="137.43" r="2.01"/></g><g id="fox_nose" data-name="fox nose"><path class="cls-6" d="M174.7,166.18a1.45,1.45,0,0,0-.74-1.29c-2.5-1.46-12-6.78-11.05-10.07,1.53-5.17,15-4.47,21.13-3.64s9,7.15-1.53,11.75a41.32,41.32,0,0,1-5.61,2.21,1.22,1.22,0,0,0-.89,1.54c.59,1.87,2.41,4.65,8,1.48,0,0-2,6.11-7.8,1.14a1.11,1.11,0,0,0-1.41,0c-1.11.87-3.72,1.92-8.41-1.45C166.42,167.84,174.53,171.3,174.7,166.18Z"/></g></g><g id="Layer_47" data-name="Layer 47"><text class="cls-7" transform="translate(43.91 312.12)">4</text></g></g></g></svg>